<svg xmlns="http://www.w3.org/2000/svg" version="1.1" xmlns:xlink="http://www.w3.org/1999/xlink" xmlns:svgjs="http://svgjs.com/svgjs" width="1440" height="560" preserveAspectRatio="none" viewBox="0 0 1440 560"><g mask="url(&quot;#SvgjsMask1147&quot;)" fill="none"><rect width="1440" height="560" x="0" y="0" fill="url(#SvgjsLinearGradient1148)"></rect><g mask="url(&quot;#SvgjsMask1149&quot;)"><path d="M350 90L430 10L510 10L730 230" stroke-width="3.33" stroke="#3a7cc3"></path><path d="M345 90 a5 5 0 1 0 10 0 a5 5 0 1 0 -10 0zM725 230 a5 5 0 1 0 10 0 a5 5 0 1 0 -10 0z" fill="#3a7cc3"></path><path d="M1310 490L1290 510L1290 550" stroke-width="3.33" stroke="#3a7cc3"></path><path d="M1305 490 a5 5 0 1 0 10 0 a5 5 0 1 0 -10 0zM1285 550 a5 5 0 1 0 10 0 a5 5 0 1 0 -10 0z" fill="#3a7cc3"></path><path d="M430 390L550 270L810 270" stroke-width="3.33" stroke="#3a7cc3"></path><path d="M425 390 a5 5 0 1 0 10 0 a5 5 0 1 0 -10 0zM805 270 a5 5 0 1 0 10 0 a5 5 0 1 0 -10 0z" fill="#3a7cc3"></path><path d="M390 250L470 330" stroke-width="3.33" stroke="#3a7cc3"></path><path d="M385 250 a5 5 0 1 0 10 0 a5 5 0 1 0 -10 0zM465 330 a5 5 0 1 0 10 0 a5 5 0 1 0 -10 0z" fill="#3a7cc3"></path><path d="M1390 490L1050 150L1050 110" stroke-width="3.33" stroke="#3a7cc3"></path><path d="M1385 490 a5 5 0 1 0 10 0 a5 5 0 1 0 -10 0zM1045 110 a5 5 0 1 0 10 0 a5 5 0 1 0 -10 0z" fill="#3a7cc3"></path><path d="M30 130L390 130L410 110" stroke-width="3.33" stroke="#3a7cc3"></path><path d="M25 130 a5 5 0 1 0 10 0 a5 5 0 1 0 -10 0zM405 110 a5 5 0 1 0 10 0 a5 5 0 1 0 -10 0z" fill="#3a7cc3"></path><path d="M1270 30L1110 190" stroke-width="3.33" stroke="#3a7cc3"></path><path d="M1265 30 a5 5 0 1 0 10 0 a5 5 0 1 0 -10 0zM1105 190 a5 5 0 1 0 10 0 a5 5 0 1 0 -10 0z" fill="#3a7cc3"></path><path d="M250 230L390 370L390 530L370 550L310 550" stroke-width="3.33" stroke="#3a7cc3"></path><path d="M245 230 a5 5 0 1 0 10 0 a5 5 0 1 0 -10 0zM305 550 a5 5 0 1 0 10 0 a5 5 0 1 0 -10 0z" fill="#3a7cc3"></path><path d="M610 390L530 310" stroke-width="3.33" stroke="#3a7cc3"></path><path d="M605 390 a5 5 0 1 0 10 0 a5 5 0 1 0 -10 0zM525 310 a5 5 0 1 0 10 0 a5 5 0 1 0 -10 0z" fill="#3a7cc3"></path><path d="M950 10L970 30L970 210L990 230L1050 230L1150 330" stroke-width="3.33" stroke="#3a7cc3"></path><path d="M945 10 a5 5 0 1 0 10 0 a5 5 0 1 0 -10 0zM1145 330 a5 5 0 1 0 10 0 a5 5 0 1 0 -10 0z" fill="#3a7cc3"></path><path d="M610 150L610 130L510 30L430 30L350 110L250 110" stroke-width="3.33" stroke="#3a7cc3"></path><path d="M605 150 a5 5 0 1 0 10 0 a5 5 0 1 0 -10 0zM245 110 a5 5 0 1 0 10 0 a5 5 0 1 0 -10 0z" fill="#3a7cc3"></path><path d="M430 250L410 250L310 150L90 150L70 170L70 190" stroke-width="3.33" stroke="#3a7cc3"></path><path d="M425 250 a5 5 0 1 0 10 0 a5 5 0 1 0 -10 0zM65 190 a5 5 0 1 0 10 0 a5 5 0 1 0 -10 0z" fill="#3a7cc3"></path><path d="M870 530L890 550L950 550L1110 390L1250 390" stroke-width="3.33" stroke="#3a7cc3"></path><path d="M865 530 a5 5 0 1 0 10 0 a5 5 0 1 0 -10 0zM1245 390 a5 5 0 1 0 10 0 a5 5 0 1 0 -10 0z" fill="#3a7cc3"></path><path d="M950 70L890 10L570 10" stroke-width="3.33" stroke="#3a7cc3"></path><path d="M945 70 a5 5 0 1 0 10 0 a5 5 0 1 0 -10 0zM565 10 a5 5 0 1 0 10 0 a5 5 0 1 0 -10 0z" fill="#3a7cc3"></path><path d="M110 490L150 530L150 550" stroke-width="3.33" stroke="#3a7cc3"></path><path d="M105 490 a5 5 0 1 0 10 0 a5 5 0 1 0 -10 0zM145 550 a5 5 0 1 0 10 0 a5 5 0 1 0 -10 0z" fill="#3a7cc3"></path><path d="M730 50L650 130" stroke-width="3.33" stroke="#3a7cc3"></path><path d="M725 50 a5 5 0 1 0 10 0 a5 5 0 1 0 -10 0zM645 130 a5 5 0 1 0 10 0 a5 5 0 1 0 -10 0z" fill="#3a7cc3"></path><path d="M210 430L210 370L290 290" stroke-width="3.33" stroke="#3a7cc3"></path><path d="M205 430 a5 5 0 1 0 10 0 a5 5 0 1 0 -10 0zM285 290 a5 5 0 1 0 10 0 a5 5 0 1 0 -10 0z" fill="#3a7cc3"></path><path d="M1350 490L1330 490L1250 410L1110 410L970 550" stroke-width="3.33" stroke="#3a7cc3"></path><path d="M1345 490 a5 5 0 1 0 10 0 a5 5 0 1 0 -10 0zM965 550 a5 5 0 1 0 10 0 a5 5 0 1 0 -10 0z" fill="#3a7cc3"></path><path d="M190 10L230 50L230 110" stroke-width="3.33" stroke="#3a7cc3"></path><path d="M185 10 a5 5 0 1 0 10 0 a5 5 0 1 0 -10 0zM225 110 a5 5 0 1 0 10 0 a5 5 0 1 0 -10 0z" fill="#3a7cc3"></path><path d="M650 230L670 210L690 210L730 250L850 250L1030 430" stroke-width="3.33" stroke="#3a7cc3"></path><path d="M645 230 a5 5 0 1 0 10 0 a5 5 0 1 0 -10 0zM1025 430 a5 5 0 1 0 10 0 a5 5 0 1 0 -10 0z" fill="#3a7cc3"></path><path d="M890 230L930 230L950 210L950 90L890 30L750 30" stroke-width="3.33" stroke="#3a7cc3"></path><path d="M885 230 a5 5 0 1 0 10 0 a5 5 0 1 0 -10 0zM745 30 a5 5 0 1 0 10 0 a5 5 0 1 0 -10 0z" fill="#3a7cc3"></path><path d="M110 470L110 450L270 290L270 270L210 210L190 210L170 230L110 230L90 210" stroke-width="3.33" stroke="#3a7cc3"></path><path d="M105 470 a5 5 0 1 0 10 0 a5 5 0 1 0 -10 0zM85 210 a5 5 0 1 0 10 0 a5 5 0 1 0 -10 0z" fill="#3a7cc3"></path><path d="M1330 270L1190 270L1130 210L1130 190L1210 110L1290 110" stroke-width="3.33" stroke="#3a7cc3"></path><path d="M1325 270 a5 5 0 1 0 10 0 a5 5 0 1 0 -10 0zM1285 110 a5 5 0 1 0 10 0 a5 5 0 1 0 -10 0z" fill="#3a7cc3"></path><path d="M490 210L650 210L670 190" stroke-width="3.33" stroke="#3a7cc3"></path><path d="M485 210 a5 5 0 1 0 10 0 a5 5 0 1 0 -10 0zM665 190 a5 5 0 1 0 10 0 a5 5 0 1 0 -10 0z" fill="#3a7cc3"></path><path d="M990 290L950 330" stroke-width="3.33" stroke="#3a7cc3"></path><path d="M985 290 a5 5 0 1 0 10 0 a5 5 0 1 0 -10 0zM945 330 a5 5 0 1 0 10 0 a5 5 0 1 0 -10 0z" fill="#3a7cc3"></path><path d="M230 250L230 310L10 530L10 550" stroke-width="3.33" stroke="#3a7cc3"></path><path d="M225 250 a5 5 0 1 0 10 0 a5 5 0 1 0 -10 0zM5 550 a5 5 0 1 0 10 0 a5 5 0 1 0 -10 0z" fill="#3a7cc3"></path><path d="M1170 30L1170 110L1110 170L1090 170L1070 150L1070 10" stroke-width="3.33" stroke="#3a7cc3"></path><path d="M1165 30 a5 5 0 1 0 10 0 a5 5 0 1 0 -10 0zM1065 10 a5 5 0 1 0 10 0 a5 5 0 1 0 -10 0z" fill="#3a7cc3"></path><path d="M1290 490L1270 470L1270 450L1250 430L1130 430L1010 550L990 550" stroke-width="3.33" stroke="#3a7cc3"></path><path d="M1285 490 a5 5 0 1 0 10 0 a5 5 0 1 0 -10 0zM985 550 a5 5 0 1 0 10 0 a5 5 0 1 0 -10 0z" fill="#3a7cc3"></path><path d="M1330 230L1430 230" stroke-width="3.33" stroke="#3a7cc3"></path><path d="M1325 230 a5 5 0 1 0 10 0 a5 5 0 1 0 -10 0zM1425 230 a5 5 0 1 0 10 0 a5 5 0 1 0 -10 0z" fill="#3a7cc3"></path><path d="M890 70L870 50L750 50L670 130L670 150L750 230L810 230" stroke-width="3.33" stroke="#3a7cc3"></path><path d="M885 70 a5 5 0 1 0 10 0 a5 5 0 1 0 -10 0zM805 230 a5 5 0 1 0 10 0 a5 5 0 1 0 -10 0z" fill="#3a7cc3"></path><path d="M130 110L90 70L90 50L50 10L10 10" stroke-width="3.33" stroke="#3a7cc3"></path><path d="M125 110 a5 5 0 1 0 10 0 a5 5 0 1 0 -10 0zM5 10 a5 5 0 1 0 10 0 a5 5 0 1 0 -10 0z" fill="#3a7cc3"></path><path d="M610 230L470 230L450 250L450 290L470 310L490 310L550 250L630 250" stroke-width="3.33" stroke="#3a7cc3"></path><path d="M605 230 a5 5 0 1 0 10 0 a5 5 0 1 0 -10 0zM625 250 a5 5 0 1 0 10 0 a5 5 0 1 0 -10 0z" fill="#3a7cc3"></path><path d="M810 130L750 70" stroke-width="3.33" stroke="#3a7cc3"></path><path d="M805 130 a5 5 0 1 0 10 0 a5 5 0 1 0 -10 0zM745 70 a5 5 0 1 0 10 0 a5 5 0 1 0 -10 0z" fill="#3a7cc3"></path><path d="M1190 450L1250 450" stroke-width="3.33" stroke="#3a7cc3"></path><path d="M1185 450 a5 5 0 1 0 10 0 a5 5 0 1 0 -10 0zM1245 450 a5 5 0 1 0 10 0 a5 5 0 1 0 -10 0z" fill="#3a7cc3"></path><path d="M990 130L990 210" stroke-width="3.33" stroke="#3a7cc3"></path><path d="M985 130 a5 5 0 1 0 10 0 a5 5 0 1 0 -10 0zM985 210 a5 5 0 1 0 10 0 a5 5 0 1 0 -10 0z" fill="#3a7cc3"></path><path d="M1110 70L1090 90L1090 150" stroke-width="3.33" stroke="#3a7cc3"></path><path d="M1105 70 a5 5 0 1 0 10 0 a5 5 0 1 0 -10 0zM1085 150 a5 5 0 1 0 10 0 a5 5 0 1 0 -10 0z" fill="#3a7cc3"></path><path d="M70 550L30 550" stroke-width="3.33" stroke="#3a7cc3"></path><path d="M65 550 a5 5 0 1 0 10 0 a5 5 0 1 0 -10 0zM25 550 a5 5 0 1 0 10 0 a5 5 0 1 0 -10 0z" fill="#3a7cc3"></path><path d="M1310 170L1310 230L1290 250L1190 250L1170 230L1170 170L1210 130L1270 130L1290 150" stroke-width="3.33" stroke="#3a7cc3"></path><path d="M1305 170 a5 5 0 1 0 10 0 a5 5 0 1 0 -10 0zM1285 150 a5 5 0 1 0 10 0 a5 5 0 1 0 -10 0z" fill="#3a7cc3"></path><path d="M670 430L750 350L750 290" stroke-width="3.33" stroke="#3a7cc3"></path><path d="M665 430 a5 5 0 1 0 10 0 a5 5 0 1 0 -10 0zM745 290 a5 5 0 1 0 10 0 a5 5 0 1 0 -10 0z" fill="#3a7cc3"></path><path d="M410 470L530 350L530 330" stroke-width="3.33" stroke="#3a7cc3"></path><path d="M405 470 a5 5 0 1 0 10 0 a5 5 0 1 0 -10 0zM525 330 a5 5 0 1 0 10 0 a5 5 0 1 0 -10 0z" fill="#3a7cc3"></path><path d="M330 450L330 390L270 330" stroke-width="3.33" stroke="#3a7cc3"></path><path d="M325 450 a5 5 0 1 0 10 0 a5 5 0 1 0 -10 0zM265 330 a5 5 0 1 0 10 0 a5 5 0 1 0 -10 0z" fill="#3a7cc3"></path><path d="M1370 190L1430 190" stroke-width="3.33" stroke="#3a7cc3"></path><path d="M1365 190 a5 5 0 1 0 10 0 a5 5 0 1 0 -10 0zM1425 190 a5 5 0 1 0 10 0 a5 5 0 1 0 -10 0z" fill="#3a7cc3"></path><path d="M990 70L990 110L1010 130L1030 130" stroke-width="3.33" stroke="#3a7cc3"></path><path d="M985 70 a5 5 0 1 0 10 0 a5 5 0 1 0 -10 0zM1025 130 a5 5 0 1 0 10 0 a5 5 0 1 0 -10 0z" fill="#3a7cc3"></path><path d="M310 530L230 450L230 370L250 350L270 350L310 390L310 510L330 530" stroke-width="3.33" stroke="#3a7cc3"></path><path d="M305 530 a5 5 0 1 0 10 0 a5 5 0 1 0 -10 0zM325 530 a5 5 0 1 0 10 0 a5 5 0 1 0 -10 0z" fill="#3a7cc3"></path><path d="M410 290L370 250L290 250L210 170L90 170" stroke-width="3.33" stroke="#3a7cc3"></path><path d="M405 290 a5 5 0 1 0 10 0 a5 5 0 1 0 -10 0zM85 170 a5 5 0 1 0 10 0 a5 5 0 1 0 -10 0z" fill="#3a7cc3"></path><path d="M650 250L670 230L690 230L710 250" stroke-width="3.33" stroke="#3a7cc3"></path><path d="M645 250 a5 5 0 1 0 10 0 a5 5 0 1 0 -10 0zM705 250 a5 5 0 1 0 10 0 a5 5 0 1 0 -10 0z" fill="#3a7cc3"></path><path d="M1410 390L1430 370L1430 250" stroke-width="3.33" stroke="#3a7cc3"></path><path d="M1405 390 a5 5 0 1 0 10 0 a5 5 0 1 0 -10 0zM1425 250 a5 5 0 1 0 10 0 a5 5 0 1 0 -10 0z" fill="#3a7cc3"></path><path d="M1230 170L1190 170" stroke-width="3.33" stroke="#3a7cc3"></path><path d="M1225 170 a5 5 0 1 0 10 0 a5 5 0 1 0 -10 0zM1185 170 a5 5 0 1 0 10 0 a5 5 0 1 0 -10 0z" fill="#3a7cc3"></path><path d="M350 410L350 350L310 310L290 310" stroke-width="3.33" stroke="#3a7cc3"></path><path d="M345 410 a5 5 0 1 0 10 0 a5 5 0 1 0 -10 0zM285 310 a5 5 0 1 0 10 0 a5 5 0 1 0 -10 0z" fill="#3a7cc3"></path><path d="M970 510L810 350L810 290L830 270L850 270L970 390" stroke-width="3.33" stroke="#3a7cc3"></path><path d="M965 510 a5 5 0 1 0 10 0 a5 5 0 1 0 -10 0zM965 390 a5 5 0 1 0 10 0 a5 5 0 1 0 -10 0z" fill="#3a7cc3"></path><path d="M150 430L130 450L130 490L150 510L270 510L290 530L290 550" stroke-width="3.33" stroke="#3a7cc3"></path><path d="M145 430 a5 5 0 1 0 10 0 a5 5 0 1 0 -10 0zM285 550 a5 5 0 1 0 10 0 a5 5 0 1 0 -10 0z" fill="#3a7cc3"></path><path d="M90 390L70 390L10 330L10 30" stroke-width="3.33" stroke="#3a7cc3"></path><path d="M85 390 a5 5 0 1 0 10 0 a5 5 0 1 0 -10 0zM5 30 a5 5 0 1 0 10 0 a5 5 0 1 0 -10 0z" fill="#3a7cc3"></path><path d="M770 430L770 550" stroke-width="3.33" stroke="#3a7cc3"></path><path d="M765 430 a5 5 0 1 0 10 0 a5 5 0 1 0 -10 0zM765 550 a5 5 0 1 0 10 0 a5 5 0 1 0 -10 0z" fill="#3a7cc3"></path><path d="M470 130L530 190L650 190" stroke-width="3.33" stroke="#3a7cc3"></path><path d="M465 130 a5 5 0 1 0 10 0 a5 5 0 1 0 -10 0zM645 190 a5 5 0 1 0 10 0 a5 5 0 1 0 -10 0z" fill="#3a7cc3"></path><path d="M410 310L370 270L310 270" stroke-width="3.33" stroke="#3a7cc3"></path><path d="M405 310 a5 5 0 1 0 10 0 a5 5 0 1 0 -10 0zM305 270 a5 5 0 1 0 10 0 a5 5 0 1 0 -10 0z" fill="#3a7cc3"></path><path d="M130 290L150 290L210 230" stroke-width="3.33" stroke="#3a7cc3"></path><path d="M125 290 a5 5 0 1 0 10 0 a5 5 0 1 0 -10 0zM205 230 a5 5 0 1 0 10 0 a5 5 0 1 0 -10 0z" fill="#3a7cc3"></path><path d="M1190 510L1130 450" stroke-width="3.33" stroke="#3a7cc3"></path><path d="M1185 510 a5 5 0 1 0 10 0 a5 5 0 1 0 -10 0zM1125 450 a5 5 0 1 0 10 0 a5 5 0 1 0 -10 0z" fill="#3a7cc3"></path><path d="M1350 10L1310 50L1270 50L1230 90" stroke-width="3.33" stroke="#3a7cc3"></path><path d="M1345 10 a5 5 0 1 0 10 0 a5 5 0 1 0 -10 0zM1225 90 a5 5 0 1 0 10 0 a5 5 0 1 0 -10 0z" fill="#3a7cc3"></path><path d="M330 490L370 530" stroke-width="3.33" stroke="#3a7cc3"></path><path d="M325 490 a5 5 0 1 0 10 0 a5 5 0 1 0 -10 0zM365 530 a5 5 0 1 0 10 0 a5 5 0 1 0 -10 0z" fill="#3a7cc3"></path><path d="M90 510L130 550" stroke-width="3.33" stroke="#3a7cc3"></path><path d="M85 510 a5 5 0 1 0 10 0 a5 5 0 1 0 -10 0zM125 550 a5 5 0 1 0 10 0 a5 5 0 1 0 -10 0z" fill="#3a7cc3"></path><path d="M1170 330L1130 370L1110 370L970 230L950 230L910 270L890 270L830 210L790 210" stroke-width="3.33" stroke="#3a7cc3"></path><path d="M1165 330 a5 5 0 1 0 10 0 a5 5 0 1 0 -10 0zM785 210 a5 5 0 1 0 10 0 a5 5 0 1 0 -10 0z" fill="#3a7cc3"></path><path d="M850 550L850 470L750 370" stroke-width="3.33" stroke="#3a7cc3"></path><path d="M845 550 a5 5 0 1 0 10 0 a5 5 0 1 0 -10 0zM745 370 a5 5 0 1 0 10 0 a5 5 0 1 0 -10 0z" fill="#3a7cc3"></path><path d="M90 250L170 250" stroke-width="3.33" stroke="#3a7cc3"></path><path d="M85 250 a5 5 0 1 0 10 0 a5 5 0 1 0 -10 0zM165 250 a5 5 0 1 0 10 0 a5 5 0 1 0 -10 0z" fill="#3a7cc3"></path><path d="M870 350L830 350" stroke-width="3.33" stroke="#3a7cc3"></path><path d="M865 350 a5 5 0 1 0 10 0 a5 5 0 1 0 -10 0zM825 350 a5 5 0 1 0 10 0 a5 5 0 1 0 -10 0z" fill="#3a7cc3"></path><path d="M1290 130L1350 130L1430 50L1430 10" stroke-width="3.33" stroke="#3a7cc3"></path><path d="M1285 130 a5 5 0 1 0 10 0 a5 5 0 1 0 -10 0zM1425 10 a5 5 0 1 0 10 0 a5 5 0 1 0 -10 0z" fill="#3a7cc3"></path><path d="M1370 490L1430 550" stroke-width="3.33" stroke="#3a7cc3"></path><path d="M1365 490 a5 5 0 1 0 10 0 a5 5 0 1 0 -10 0zM1425 550 a5 5 0 1 0 10 0 a5 5 0 1 0 -10 0z" fill="#3a7cc3"></path><path d="M130 330L150 350L170 350L210 310L210 250" stroke-width="3.33" stroke="#3a7cc3"></path><path d="M125 330 a5 5 0 1 0 10 0 a5 5 0 1 0 -10 0zM205 250 a5 5 0 1 0 10 0 a5 5 0 1 0 -10 0z" fill="#3a7cc3"></path><path d="M1390 350L1350 350L1310 390" stroke-width="3.33" stroke="#3a7cc3"></path><path d="M1385 350 a5 5 0 1 0 10 0 a5 5 0 1 0 -10 0zM1305 390 a5 5 0 1 0 10 0 a5 5 0 1 0 -10 0z" fill="#3a7cc3"></path><path d="M1330 90L1310 70L1270 70L1250 90" stroke-width="3.33" stroke="#3a7cc3"></path><path d="M1325 90 a5 5 0 1 0 10 0 a5 5 0 1 0 -10 0zM1245 90 a5 5 0 1 0 10 0 a5 5 0 1 0 -10 0z" fill="#3a7cc3"></path><path d="M650 530L510 390" stroke-width="3.33" stroke="#3a7cc3"></path><path d="M645 530 a5 5 0 1 0 10 0 a5 5 0 1 0 -10 0zM505 390 a5 5 0 1 0 10 0 a5 5 0 1 0 -10 0z" fill="#3a7cc3"></path><path d="M710 550L390 550" stroke-width="3.33" stroke="#3a7cc3"></path><path d="M705 550 a5 5 0 1 0 10 0 a5 5 0 1 0 -10 0zM385 550 a5 5 0 1 0 10 0 a5 5 0 1 0 -10 0z" fill="#3a7cc3"></path><path d="M1070 210L1010 150" stroke-width="3.33" stroke="#3a7cc3"></path><path d="M1065 210 a5 5 0 1 0 10 0 a5 5 0 1 0 -10 0zM1005 150 a5 5 0 1 0 10 0 a5 5 0 1 0 -10 0z" fill="#3a7cc3"></path><path d="M90 530L50 530" stroke-width="3.33" stroke="#3a7cc3"></path><path d="M85 530 a5 5 0 1 0 10 0 a5 5 0 1 0 -10 0zM45 530 a5 5 0 1 0 10 0 a5 5 0 1 0 -10 0z" fill="#3a7cc3"></path><path d="M1010 310L970 350" stroke-width="3.33" stroke="#3a7cc3"></path><path d="M1005 310 a5 5 0 1 0 10 0 a5 5 0 1 0 -10 0zM965 350 a5 5 0 1 0 10 0 a5 5 0 1 0 -10 0z" fill="#3a7cc3"></path><path d="M1370 90L1350 110L1310 110L1290 90L1270 90" stroke-width="3.33" stroke="#3a7cc3"></path><path d="M1365 90 a5 5 0 1 0 10 0 a5 5 0 1 0 -10 0zM1265 90 a5 5 0 1 0 10 0 a5 5 0 1 0 -10 0z" fill="#3a7cc3"></path><path d="M930 110L910 90L910 70" stroke-width="3.33" stroke="#3a7cc3"></path><path d="M925 110 a5 5 0 1 0 10 0 a5 5 0 1 0 -10 0zM905 70 a5 5 0 1 0 10 0 a5 5 0 1 0 -10 0z" fill="#3a7cc3"></path><path d="M490 530L630 530" stroke-width="3.33" stroke="#3a7cc3"></path><path d="M485 530 a5 5 0 1 0 10 0 a5 5 0 1 0 -10 0zM625 530 a5 5 0 1 0 10 0 a5 5 0 1 0 -10 0z" fill="#3a7cc3"></path><path d="M530 150L570 110" stroke-width="3.33" stroke="#3a7cc3"></path><path d="M525 150 a5 5 0 1 0 10 0 a5 5 0 1 0 -10 0zM565 110 a5 5 0 1 0 10 0 a5 5 0 1 0 -10 0z" fill="#3a7cc3"></path><path d="M950 430L1010 430L1030 450" stroke-width="3.33" stroke="#3a7cc3"></path><path d="M945 430 a5 5 0 1 0 10 0 a5 5 0 1 0 -10 0zM1025 450 a5 5 0 1 0 10 0 a5 5 0 1 0 -10 0z" fill="#3a7cc3"></path><path d="M1230 310L1410 310" stroke-width="3.33" stroke="#3a7cc3"></path><path d="M1225 310 a5 5 0 1 0 10 0 a5 5 0 1 0 -10 0zM1405 310 a5 5 0 1 0 10 0 a5 5 0 1 0 -10 0z" fill="#3a7cc3"></path><path d="M370 170L490 170L510 190" stroke-width="3.33" stroke="#3a7cc3"></path><path d="M365 170 a5 5 0 1 0 10 0 a5 5 0 1 0 -10 0zM505 190 a5 5 0 1 0 10 0 a5 5 0 1 0 -10 0z" fill="#3a7cc3"></path><path d="M290 50L290 10" stroke-width="3.33" stroke="#3a7cc3"></path><path d="M285 50 a5 5 0 1 0 10 0 a5 5 0 1 0 -10 0zM285 10 a5 5 0 1 0 10 0 a5 5 0 1 0 -10 0z" fill="#3a7cc3"></path><path d="M1230 490L1170 550L1030 550" stroke-width="3.33" stroke="#3a7cc3"></path><path d="M1225 490 a5 5 0 1 0 10 0 a5 5 0 1 0 -10 0zM1025 550 a5 5 0 1 0 10 0 a5 5 0 1 0 -10 0z" fill="#3a7cc3"></path><path d="M650 490L650 510L670 530L750 530" stroke-width="3.33" stroke="#3a7cc3"></path><path d="M645 490 a5 5 0 1 0 10 0 a5 5 0 1 0 -10 0zM745 530 a5 5 0 1 0 10 0 a5 5 0 1 0 -10 0z" fill="#3a7cc3"></path><path d="M510 410L410 510L410 530" stroke-width="3.33" stroke="#3a7cc3"></path><path d="M505 410 a5 5 0 1 0 10 0 a5 5 0 1 0 -10 0zM405 530 a5 5 0 1 0 10 0 a5 5 0 1 0 -10 0z" fill="#3a7cc3"></path><path d="M610 510L430 510" stroke-width="3.33" stroke="#3a7cc3"></path><path d="M605 510 a5 5 0 1 0 10 0 a5 5 0 1 0 -10 0zM425 510 a5 5 0 1 0 10 0 a5 5 0 1 0 -10 0z" fill="#3a7cc3"></path><path d="M170 110L150 110L110 70L110 50L130 30L190 30L210 50L210 110" stroke-width="3.33" stroke="#3a7cc3"></path><path d="M165 110 a5 5 0 1 0 10 0 a5 5 0 1 0 -10 0zM205 110 a5 5 0 1 0 10 0 a5 5 0 1 0 -10 0z" fill="#3a7cc3"></path><path d="M370 390L370 510" stroke-width="3.33" stroke="#3a7cc3"></path><path d="M365 390 a5 5 0 1 0 10 0 a5 5 0 1 0 -10 0zM365 510 a5 5 0 1 0 10 0 a5 5 0 1 0 -10 0z" fill="#3a7cc3"></path><path d="M1210 230L1290 230" stroke-width="3.33" stroke="#3a7cc3"></path><path d="M1205 230 a5 5 0 1 0 10 0 a5 5 0 1 0 -10 0zM1285 230 a5 5 0 1 0 10 0 a5 5 0 1 0 -10 0z" fill="#3a7cc3"></path><path d="M350 150L470 150" stroke-width="3.33" stroke="#3a7cc3"></path><path d="M345 150 a5 5 0 1 0 10 0 a5 5 0 1 0 -10 0zM465 150 a5 5 0 1 0 10 0 a5 5 0 1 0 -10 0z" fill="#3a7cc3"></path><path d="M170 210L190 190L210 190" stroke-width="3.33" stroke="#3a7cc3"></path><path d="M165 210 a5 5 0 1 0 10 0 a5 5 0 1 0 -10 0zM205 190 a5 5 0 1 0 10 0 a5 5 0 1 0 -10 0z" fill="#3a7cc3"></path><path d="M110 270L150 270" stroke-width="3.33" stroke="#3a7cc3"></path><path d="M105 270 a5 5 0 1 0 10 0 a5 5 0 1 0 -10 0zM145 270 a5 5 0 1 0 10 0 a5 5 0 1 0 -10 0z" fill="#3a7cc3"></path><path d="M790 490L790 470L810 450" stroke-width="3.33" stroke="#3a7cc3"></path><path d="M785 490 a5 5 0 1 0 10 0 a5 5 0 1 0 -10 0zM805 450 a5 5 0 1 0 10 0 a5 5 0 1 0 -10 0z" fill="#3a7cc3"></path><path d="M870 230L730 90" stroke-width="3.33" stroke="#3a7cc3"></path><path d="M865 230 a5 5 0 1 0 10 0 a5 5 0 1 0 -10 0zM725 90 a5 5 0 1 0 10 0 a5 5 0 1 0 -10 0z" fill="#3a7cc3"></path><path d="M1350 50L1370 50L1390 70" stroke-width="3.33" stroke="#3a7cc3"></path><path d="M1345 50 a5 5 0 1 0 10 0 a5 5 0 1 0 -10 0zM1385 70 a5 5 0 1 0 10 0 a5 5 0 1 0 -10 0z" fill="#3a7cc3"></path><path d="M310 30L310 90" stroke-width="3.33" stroke="#3a7cc3"></path><path d="M305 30 a5 5 0 1 0 10 0 a5 5 0 1 0 -10 0zM305 90 a5 5 0 1 0 10 0 a5 5 0 1 0 -10 0z" fill="#3a7cc3"></path><path d="M750 430L730 410L730 390" stroke-width="3.33" stroke="#3a7cc3"></path><path d="M745 430 a5 5 0 1 0 10 0 a5 5 0 1 0 -10 0zM725 390 a5 5 0 1 0 10 0 a5 5 0 1 0 -10 0z" fill="#3a7cc3"></path><path d="M490 290L490 250" stroke-width="3.33" stroke="#3a7cc3"></path><path d="M485 290 a5 5 0 1 0 10 0 a5 5 0 1 0 -10 0zM485 250 a5 5 0 1 0 10 0 a5 5 0 1 0 -10 0z" fill="#3a7cc3"></path><path d="M270 530L250 550L190 550" stroke-width="3.33" stroke="#3a7cc3"></path><path d="M265 530 a5 5 0 1 0 10 0 a5 5 0 1 0 -10 0zM185 550 a5 5 0 1 0 10 0 a5 5 0 1 0 -10 0z" fill="#3a7cc3"></path><path d="M930 510L930 490L890 450L850 450L770 370L770 290" stroke-width="3.33" stroke="#3a7cc3"></path><path d="M925 510 a5 5 0 1 0 10 0 a5 5 0 1 0 -10 0zM765 290 a5 5 0 1 0 10 0 a5 5 0 1 0 -10 0z" fill="#3a7cc3"></path><path d="M690 450L710 430L710 410" stroke-width="3.33" stroke="#3a7cc3"></path><path d="M685 450 a5 5 0 1 0 10 0 a5 5 0 1 0 -10 0zM705 410 a5 5 0 1 0 10 0 a5 5 0 1 0 -10 0z" fill="#3a7cc3"></path><path d="M290 490L250 450L250 430L290 390" stroke-width="3.33" stroke="#3a7cc3"></path><path d="M285 490 a5 5 0 1 0 10 0 a5 5 0 1 0 -10 0zM285 390 a5 5 0 1 0 10 0 a5 5 0 1 0 -10 0z" fill="#3a7cc3"></path><path d="M90 270L90 370L110 390L130 390L150 370" stroke-width="3.33" stroke="#3a7cc3"></path><path d="M85 270 a5 5 0 1 0 10 0 a5 5 0 1 0 -10 0zM145 370 a5 5 0 1 0 10 0 a5 5 0 1 0 -10 0z" fill="#3a7cc3"></path><path d="M670 90L610 90" stroke-width="3.33" stroke="#3a7cc3"></path><path d="M665 90 a5 5 0 1 0 10 0 a5 5 0 1 0 -10 0zM605 90 a5 5 0 1 0 10 0 a5 5 0 1 0 -10 0z" fill="#3a7cc3"></path><path d="M1130 70L1130 30L1150 10L1330 10" stroke-width="3.33" stroke="#3a7cc3"></path><path d="M1125 70 a5 5 0 1 0 10 0 a5 5 0 1 0 -10 0zM1325 10 a5 5 0 1 0 10 0 a5 5 0 1 0 -10 0z" fill="#3a7cc3"></path><path d="M530 490L530 430" stroke-width="3.33" stroke="#3a7cc3"></path><path d="M525 490 a5 5 0 1 0 10 0 a5 5 0 1 0 -10 0zM525 430 a5 5 0 1 0 10 0 a5 5 0 1 0 -10 0z" fill="#3a7cc3"></path><path d="M350 430L350 490" stroke-width="3.33" stroke="#3a7cc3"></path><path d="M345 430 a5 5 0 1 0 10 0 a5 5 0 1 0 -10 0zM345 490 a5 5 0 1 0 10 0 a5 5 0 1 0 -10 0z" fill="#3a7cc3"></path><path d="M1330 330L1410 330" stroke-width="3.33" stroke="#3a7cc3"></path><path d="M1325 330 a5 5 0 1 0 10 0 a5 5 0 1 0 -10 0zM1405 330 a5 5 0 1 0 10 0 a5 5 0 1 0 -10 0z" fill="#3a7cc3"></path><path d="M1050 50L1050 90L1030 110L1010 110" stroke-width="3.33" stroke="#3a7cc3"></path><path d="M1045 50 a5 5 0 1 0 10 0 a5 5 0 1 0 -10 0zM1005 110 a5 5 0 1 0 10 0 a5 5 0 1 0 -10 0z" fill="#3a7cc3"></path><path d="M970 410L850 290L830 290" stroke-width="3.33" stroke="#3a7cc3"></path><path d="M965 410 a5 5 0 1 0 10 0 a5 5 0 1 0 -10 0zM825 290 a5 5 0 1 0 10 0 a5 5 0 1 0 -10 0z" fill="#3a7cc3"></path><path d="M950 450L990 490" stroke-width="3.33" stroke="#3a7cc3"></path><path d="M945 450 a5 5 0 1 0 10 0 a5 5 0 1 0 -10 0zM985 490 a5 5 0 1 0 10 0 a5 5 0 1 0 -10 0z" fill="#3a7cc3"></path><path d="M870 90L890 90L930 130L930 210" stroke-width="3.33" stroke="#3a7cc3"></path><path d="M865 90 a5 5 0 1 0 10 0 a5 5 0 1 0 -10 0zM925 210 a5 5 0 1 0 10 0 a5 5 0 1 0 -10 0z" fill="#3a7cc3"></path><path d="M790 510L790 550" stroke-width="3.33" stroke="#3a7cc3"></path><path d="M785 510 a5 5 0 1 0 10 0 a5 5 0 1 0 -10 0zM785 550 a5 5 0 1 0 10 0 a5 5 0 1 0 -10 0z" fill="#3a7cc3"></path><path d="M1330 450L1310 450L1270 410L1270 390" stroke-width="3.33" stroke="#3a7cc3"></path><path d="M1325 450 a5 5 0 1 0 10 0 a5 5 0 1 0 -10 0zM1265 390 a5 5 0 1 0 10 0 a5 5 0 1 0 -10 0z" fill="#3a7cc3"></path><path d="M1110 490L1070 530L1050 530" stroke-width="3.33" stroke="#3a7cc3"></path><path d="M1105 490 a5 5 0 1 0 10 0 a5 5 0 1 0 -10 0zM1045 530 a5 5 0 1 0 10 0 a5 5 0 1 0 -10 0z" fill="#3a7cc3"></path><path d="M630 370L550 290" stroke-width="3.33" stroke="#3a7cc3"></path><path d="M625 370 a5 5 0 1 0 10 0 a5 5 0 1 0 -10 0zM545 290 a5 5 0 1 0 10 0 a5 5 0 1 0 -10 0z" fill="#3a7cc3"></path><path d="M790 290L790 370L850 430L870 430" stroke-width="3.33" stroke="#3a7cc3"></path><path d="M785 290 a5 5 0 1 0 10 0 a5 5 0 1 0 -10 0zM865 430 a5 5 0 1 0 10 0 a5 5 0 1 0 -10 0z" fill="#3a7cc3"></path><path d="M570 30L550 10L530 10" stroke-width="3.33" stroke="#3a7cc3"></path><path d="M565 30 a5 5 0 1 0 10 0 a5 5 0 1 0 -10 0zM525 10 a5 5 0 1 0 10 0 a5 5 0 1 0 -10 0z" fill="#3a7cc3"></path><path d="M430 230L410 230L370 190" stroke-width="3.33" stroke="#3a7cc3"></path><path d="M425 230 a5 5 0 1 0 10 0 a5 5 0 1 0 -10 0zM365 190 a5 5 0 1 0 10 0 a5 5 0 1 0 -10 0z" fill="#3a7cc3"></path><path d="M90 230L30 230" stroke-width="3.33" stroke="#3a7cc3"></path><path d="M85 230 a5 5 0 1 0 10 0 a5 5 0 1 0 -10 0zM25 230 a5 5 0 1 0 10 0 a5 5 0 1 0 -10 0z" fill="#3a7cc3"></path><path d="M410 430L410 330L370 290" stroke-width="3.33" stroke="#3a7cc3"></path><path d="M405 430 a5 5 0 1 0 10 0 a5 5 0 1 0 -10 0zM365 290 a5 5 0 1 0 10 0 a5 5 0 1 0 -10 0z" fill="#3a7cc3"></path><path d="M190 270L150 310L150 330" stroke-width="3.33" stroke="#3a7cc3"></path><path d="M185 270 a5 5 0 1 0 10 0 a5 5 0 1 0 -10 0zM145 330 a5 5 0 1 0 10 0 a5 5 0 1 0 -10 0z" fill="#3a7cc3"></path><path d="M1070 290L1130 350" stroke-width="3.33" stroke="#3a7cc3"></path><path d="M1065 290 a5 5 0 1 0 10 0 a5 5 0 1 0 -10 0zM1125 350 a5 5 0 1 0 10 0 a5 5 0 1 0 -10 0z" fill="#3a7cc3"></path><path d="M210 10L270 10" stroke-width="3.33" stroke="#3a7cc3"></path><path d="M205 10 a5 5 0 1 0 10 0 a5 5 0 1 0 -10 0zM265 10 a5 5 0 1 0 10 0 a5 5 0 1 0 -10 0z" fill="#3a7cc3"></path><path d="M690 290L730 290" stroke-width="3.33" stroke="#3a7cc3"></path><path d="M685 290 a5 5 0 1 0 10 0 a5 5 0 1 0 -10 0zM725 290 a5 5 0 1 0 10 0 a5 5 0 1 0 -10 0z" fill="#3a7cc3"></path><path d="M850 130L910 190L910 210" stroke-width="3.33" stroke="#3a7cc3"></path><path d="M845 130 a5 5 0 1 0 10 0 a5 5 0 1 0 -10 0zM905 210 a5 5 0 1 0 10 0 a5 5 0 1 0 -10 0z" fill="#3a7cc3"></path><path d="M10 450L50 410L50 390L10 350" stroke-width="3.33" stroke="#3a7cc3"></path><path d="M5 450 a5 5 0 1 0 10 0 a5 5 0 1 0 -10 0zM5 350 a5 5 0 1 0 10 0 a5 5 0 1 0 -10 0z" fill="#3a7cc3"></path><path d="M70 250L30 290" stroke-width="3.33" stroke="#3a7cc3"></path><path d="M65 250 a5 5 0 1 0 10 0 a5 5 0 1 0 -10 0zM25 290 a5 5 0 1 0 10 0 a5 5 0 1 0 -10 0z" fill="#3a7cc3"></path><path d="M270 210L290 230L350 230" stroke-width="3.33" stroke="#3a7cc3"></path><path d="M265 210 a5 5 0 1 0 10 0 a5 5 0 1 0 -10 0zM345 230 a5 5 0 1 0 10 0 a5 5 0 1 0 -10 0z" fill="#3a7cc3"></path><path d="M1290 190L1290 170L1270 150L1210 150" stroke-width="3.33" stroke="#3a7cc3"></path><path d="M1285 190 a5 5 0 1 0 10 0 a5 5 0 1 0 -10 0zM1205 150 a5 5 0 1 0 10 0 a5 5 0 1 0 -10 0z" fill="#3a7cc3"></path><path d="M330 350L310 330L290 330" stroke-width="3.33" stroke="#3a7cc3"></path><path d="M325 350 a5 5 0 1 0 10 0 a5 5 0 1 0 -10 0zM285 330 a5 5 0 1 0 10 0 a5 5 0 1 0 -10 0z" fill="#3a7cc3"></path><path d="M1390 110L1330 170L1330 210" stroke-width="3.33" stroke="#3a7cc3"></path><path d="M1385 110 a5 5 0 1 0 10 0 a5 5 0 1 0 -10 0zM1325 210 a5 5 0 1 0 10 0 a5 5 0 1 0 -10 0z" fill="#3a7cc3"></path><path d="M530 70L490 110L490 130" stroke-width="3.33" stroke="#3a7cc3"></path><path d="M525 70 a5 5 0 1 0 10 0 a5 5 0 1 0 -10 0zM485 130 a5 5 0 1 0 10 0 a5 5 0 1 0 -10 0z" fill="#3a7cc3"></path><path d="M1130 490L1130 530" stroke-width="3.33" stroke="#3a7cc3"></path><path d="M1125 490 a5 5 0 1 0 10 0 a5 5 0 1 0 -10 0zM1125 530 a5 5 0 1 0 10 0 a5 5 0 1 0 -10 0z" fill="#3a7cc3"></path><path d="M50 470L110 410" stroke-width="3.33" stroke="#3a7cc3"></path><path d="M45 470 a5 5 0 1 0 10 0 a5 5 0 1 0 -10 0zM105 410 a5 5 0 1 0 10 0 a5 5 0 1 0 -10 0z" fill="#3a7cc3"></path><path d="M1290 350L1270 350L1250 330" stroke-width="3.33" stroke="#3a7cc3"></path><path d="M1285 350 a5 5 0 1 0 10 0 a5 5 0 1 0 -10 0zM1245 330 a5 5 0 1 0 10 0 a5 5 0 1 0 -10 0z" fill="#3a7cc3"></path><path d="M1230 470L1170 470L1150 450" stroke-width="3.33" stroke="#3a7cc3"></path><path d="M1225 470 a5 5 0 1 0 10 0 a5 5 0 1 0 -10 0zM1145 450 a5 5 0 1 0 10 0 a5 5 0 1 0 -10 0z" fill="#3a7cc3"></path><path d="M910 530L950 530" stroke-width="3.33" stroke="#3a7cc3"></path><path d="M905 530 a5 5 0 1 0 10 0 a5 5 0 1 0 -10 0zM945 530 a5 5 0 1 0 10 0 a5 5 0 1 0 -10 0z" fill="#3a7cc3"></path><path d="M650 370L710 370L730 350L730 310" stroke-width="3.33" stroke="#3a7cc3"></path><path d="M645 370 a5 5 0 1 0 10 0 a5 5 0 1 0 -10 0zM725 310 a5 5 0 1 0 10 0 a5 5 0 1 0 -10 0z" fill="#3a7cc3"></path><path d="M450 230L450 190" stroke-width="3.33" stroke="#3a7cc3"></path><path d="M445 230 a5 5 0 1 0 10 0 a5 5 0 1 0 -10 0zM445 190 a5 5 0 1 0 10 0 a5 5 0 1 0 -10 0z" fill="#3a7cc3"></path><path d="M730 190L750 190L770 170L770 150L750 130" stroke-width="3.33" stroke="#3a7cc3"></path><path d="M725 190 a5 5 0 1 0 10 0 a5 5 0 1 0 -10 0zM745 130 a5 5 0 1 0 10 0 a5 5 0 1 0 -10 0z" fill="#3a7cc3"></path><path d="M1110 50L1110 10" stroke-width="3.33" stroke="#3a7cc3"></path><path d="M1105 50 a5 5 0 1 0 10 0 a5 5 0 1 0 -10 0zM1105 10 a5 5 0 1 0 10 0 a5 5 0 1 0 -10 0z" fill="#3a7cc3"></path><path d="M1330 550L1370 510" stroke-width="3.33" stroke="#3a7cc3"></path><path d="M1325 550 a5 5 0 1 0 10 0 a5 5 0 1 0 -10 0zM1365 510 a5 5 0 1 0 10 0 a5 5 0 1 0 -10 0z" fill="#3a7cc3"></path><path d="M730 30L590 30L570 50" stroke-width="3.33" stroke="#3a7cc3"></path><path d="M725 30 a5 5 0 1 0 10 0 a5 5 0 1 0 -10 0zM565 50 a5 5 0 1 0 10 0 a5 5 0 1 0 -10 0z" fill="#3a7cc3"></path><path d="M710 330L610 330L570 290" stroke-width="3.33" stroke="#3a7cc3"></path><path d="M705 330 a5 5 0 1 0 10 0 a5 5 0 1 0 -10 0zM565 290 a5 5 0 1 0 10 0 a5 5 0 1 0 -10 0z" fill="#3a7cc3"></path><path d="M1390 410L1430 410" stroke-width="3.33" stroke="#3a7cc3"></path><path d="M1385 410 a5 5 0 1 0 10 0 a5 5 0 1 0 -10 0zM1425 410 a5 5 0 1 0 10 0 a5 5 0 1 0 -10 0z" fill="#3a7cc3"></path><path d="M1370 430L1370 390L1350 370" stroke-width="3.33" stroke="#3a7cc3"></path><path d="M1365 430 a5 5 0 1 0 10 0 a5 5 0 1 0 -10 0zM1345 370 a5 5 0 1 0 10 0 a5 5 0 1 0 -10 0z" fill="#3a7cc3"></path><path d="M30 90L30 50" stroke-width="3.33" stroke="#3a7cc3"></path><path d="M25 90 a5 5 0 1 0 10 0 a5 5 0 1 0 -10 0zM25 50 a5 5 0 1 0 10 0 a5 5 0 1 0 -10 0z" fill="#3a7cc3"></path><path d="M930 450L930 390L890 350" stroke-width="3.33" stroke="#3a7cc3"></path><path d="M925 450 a5 5 0 1 0 10 0 a5 5 0 1 0 -10 0zM885 350 a5 5 0 1 0 10 0 a5 5 0 1 0 -10 0z" fill="#3a7cc3"></path><path d="M1410 170L1350 170" stroke-width="3.33" stroke="#3a7cc3"></path><path d="M1405 170 a5 5 0 1 0 10 0 a5 5 0 1 0 -10 0zM1345 170 a5 5 0 1 0 10 0 a5 5 0 1 0 -10 0z" fill="#3a7cc3"></path><path d="M1030 70L1030 10" stroke-width="3.33" stroke="#3a7cc3"></path><path d="M1025 70 a5 5 0 1 0 10 0 a5 5 0 1 0 -10 0zM1025 10 a5 5 0 1 0 10 0 a5 5 0 1 0 -10 0z" fill="#3a7cc3"></path><path d="M70 350L70 270" stroke-width="3.33" stroke="#3a7cc3"></path><path d="M65 350 a5 5 0 1 0 10 0 a5 5 0 1 0 -10 0zM65 270 a5 5 0 1 0 10 0 a5 5 0 1 0 -10 0z" fill="#3a7cc3"></path><path d="M1010 370L1090 370" stroke-width="3.33" stroke="#3a7cc3"></path><path d="M1005 370 a5 5 0 1 0 10 0 a5 5 0 1 0 -10 0zM1085 370 a5 5 0 1 0 10 0 a5 5 0 1 0 -10 0z" fill="#3a7cc3"></path><path d="M90 190L110 210L150 210L170 190" stroke-width="3.33" stroke="#3a7cc3"></path><path d="M85 190 a5 5 0 1 0 10 0 a5 5 0 1 0 -10 0zM165 190 a5 5 0 1 0 10 0 a5 5 0 1 0 -10 0z" fill="#3a7cc3"></path><path d="M10 490L10 470L70 410L90 410" stroke-width="3.33" stroke="#3a7cc3"></path><path d="M5 490 a5 5 0 1 0 10 0 a5 5 0 1 0 -10 0zM85 410 a5 5 0 1 0 10 0 a5 5 0 1 0 -10 0z" fill="#3a7cc3"></path><path d="M1110 150L1150 110L1150 30" stroke-width="3.33" stroke="#3a7cc3"></path><path d="M1105 150 a5 5 0 1 0 10 0 a5 5 0 1 0 -10 0zM1145 30 a5 5 0 1 0 10 0 a5 5 0 1 0 -10 0z" fill="#3a7cc3"></path><path d="M950 310L950 270" stroke-width="3.33" stroke="#3a7cc3"></path><path d="M945 310 a5 5 0 1 0 10 0 a5 5 0 1 0 -10 0zM945 270 a5 5 0 1 0 10 0 a5 5 0 1 0 -10 0z" fill="#3a7cc3"></path><path d="M270 50L290 70L290 90" stroke-width="3.33" stroke="#3a7cc3"></path><path d="M265 50 a5 5 0 1 0 10 0 a5 5 0 1 0 -10 0zM285 90 a5 5 0 1 0 10 0 a5 5 0 1 0 -10 0z" fill="#3a7cc3"></path><path d="M650 50L630 50L610 70" stroke-width="3.33" stroke="#3a7cc3"></path><path d="M645 50 a5 5 0 1 0 10 0 a5 5 0 1 0 -10 0zM605 70 a5 5 0 1 0 10 0 a5 5 0 1 0 -10 0z" fill="#3a7cc3"></path><path d="M70 510L90 490L90 470" stroke-width="3.33" stroke="#3a7cc3"></path><path d="M65 510 a5 5 0 1 0 10 0 a5 5 0 1 0 -10 0zM85 470 a5 5 0 1 0 10 0 a5 5 0 1 0 -10 0z" fill="#3a7cc3"></path><path d="M650 410L650 450L690 490" stroke-width="3.33" stroke="#3a7cc3"></path><path d="M645 410 a5 5 0 1 0 10 0 a5 5 0 1 0 -10 0zM685 490 a5 5 0 1 0 10 0 a5 5 0 1 0 -10 0z" fill="#3a7cc3"></path><path d="M190 390L190 490" stroke-width="3.33" stroke="#3a7cc3"></path><path d="M185 390 a5 5 0 1 0 10 0 a5 5 0 1 0 -10 0zM185 490 a5 5 0 1 0 10 0 a5 5 0 1 0 -10 0z" fill="#3a7cc3"></path><path d="M1010 330L1030 350L1070 350" stroke-width="3.33" stroke="#3a7cc3"></path><path d="M1005 330 a5 5 0 1 0 10 0 a5 5 0 1 0 -10 0zM1065 350 a5 5 0 1 0 10 0 a5 5 0 1 0 -10 0z" fill="#3a7cc3"></path><path d="M1090 250L1150 310L1190 310L1250 370" stroke-width="3.33" stroke="#3a7cc3"></path><path d="M1085 250 a5 5 0 1 0 10 0 a5 5 0 1 0 -10 0zM1245 370 a5 5 0 1 0 10 0 a5 5 0 1 0 -10 0z" fill="#3a7cc3"></path><path d="M1350 430L1350 390" stroke-width="3.33" stroke="#3a7cc3"></path><path d="M1345 430 a5 5 0 1 0 10 0 a5 5 0 1 0 -10 0zM1345 390 a5 5 0 1 0 10 0 a5 5 0 1 0 -10 0z" fill="#3a7cc3"></path><path d="M730 470L730 430" stroke-width="3.33" stroke="#3a7cc3"></path><path d="M725 470 a5 5 0 1 0 10 0 a5 5 0 1 0 -10 0zM725 430 a5 5 0 1 0 10 0 a5 5 0 1 0 -10 0z" fill="#3a7cc3"></path><path d="M510 50L430 50L370 110" stroke-width="3.33" stroke="#3a7cc3"></path><path d="M505 50 a5 5 0 1 0 10 0 a5 5 0 1 0 -10 0zM365 110 a5 5 0 1 0 10 0 a5 5 0 1 0 -10 0z" fill="#3a7cc3"></path><path d="M1250 290L1410 290" stroke-width="3.33" stroke="#3a7cc3"></path><path d="M1245 290 a5 5 0 1 0 10 0 a5 5 0 1 0 -10 0zM1405 290 a5 5 0 1 0 10 0 a5 5 0 1 0 -10 0z" fill="#3a7cc3"></path><path d="M250 90L250 30" stroke-width="3.33" stroke="#3a7cc3"></path><path d="M245 90 a5 5 0 1 0 10 0 a5 5 0 1 0 -10 0zM245 30 a5 5 0 1 0 10 0 a5 5 0 1 0 -10 0z" fill="#3a7cc3"></path><path d="M1210 50L1230 30L1250 30" stroke-width="3.33" stroke="#3a7cc3"></path><path d="M1205 50 a5 5 0 1 0 10 0 a5 5 0 1 0 -10 0zM1245 30 a5 5 0 1 0 10 0 a5 5 0 1 0 -10 0z" fill="#3a7cc3"></path><path d="M30 170L50 170L70 150" stroke-width="3.33" stroke="#3a7cc3"></path><path d="M25 170 a5 5 0 1 0 10 0 a5 5 0 1 0 -10 0zM65 150 a5 5 0 1 0 10 0 a5 5 0 1 0 -10 0z" fill="#3a7cc3"></path><path d="M630 430L630 490" stroke-width="3.33" stroke="#3a7cc3"></path><path d="M625 430 a5 5 0 1 0 10 0 a5 5 0 1 0 -10 0zM625 490 a5 5 0 1 0 10 0 a5 5 0 1 0 -10 0z" fill="#3a7cc3"></path><path d="M790 190L770 210L750 210" stroke-width="3.33" stroke="#3a7cc3"></path><path d="M785 190 a5 5 0 1 0 10 0 a5 5 0 1 0 -10 0zM745 210 a5 5 0 1 0 10 0 a5 5 0 1 0 -10 0z" fill="#3a7cc3"></path><path d="M490 470L490 450L510 430" stroke-width="3.33" stroke="#3a7cc3"></path><path d="M485 470 a5 5 0 1 0 10 0 a5 5 0 1 0 -10 0zM505 430 a5 5 0 1 0 10 0 a5 5 0 1 0 -10 0z" fill="#3a7cc3"></path><path d="M1190 550L1250 490L1250 470" stroke-width="3.33" stroke="#3a7cc3"></path><path d="M1185 550 a5 5 0 1 0 10 0 a5 5 0 1 0 -10 0zM1245 470 a5 5 0 1 0 10 0 a5 5 0 1 0 -10 0z" fill="#3a7cc3"></path><path d="M430 530L470 530" stroke-width="3.33" stroke="#3a7cc3"></path><path d="M425 530 a5 5 0 1 0 10 0 a5 5 0 1 0 -10 0zM465 530 a5 5 0 1 0 10 0 a5 5 0 1 0 -10 0z" fill="#3a7cc3"></path><path d="M170 50L170 90L190 110" stroke-width="3.33" stroke="#3a7cc3"></path><path d="M165 50 a5 5 0 1 0 10 0 a5 5 0 1 0 -10 0zM185 110 a5 5 0 1 0 10 0 a5 5 0 1 0 -10 0z" fill="#3a7cc3"></path><path d="M1310 510L1310 550" stroke-width="3.33" stroke="#3a7cc3"></path><path d="M1305 510 a5 5 0 1 0 10 0 a5 5 0 1 0 -10 0zM1305 550 a5 5 0 1 0 10 0 a5 5 0 1 0 -10 0z" fill="#3a7cc3"></path><path d="M570 130L570 150L590 170L610 170" stroke-width="3.33" stroke="#3a7cc3"></path><path d="M565 130 a5 5 0 1 0 10 0 a5 5 0 1 0 -10 0zM605 170 a5 5 0 1 0 10 0 a5 5 0 1 0 -10 0z" fill="#3a7cc3"></path><path d="M1430 130L1430 170" stroke-width="3.33" stroke="#3a7cc3"></path><path d="M1425 130 a5 5 0 1 0 10 0 a5 5 0 1 0 -10 0zM1425 170 a5 5 0 1 0 10 0 a5 5 0 1 0 -10 0z" fill="#3a7cc3"></path><path d="M790 90L870 170" stroke-width="3.33" stroke="#3a7cc3"></path><path d="M785 90 a5 5 0 1 0 10 0 a5 5 0 1 0 -10 0zM865 170 a5 5 0 1 0 10 0 a5 5 0 1 0 -10 0z" fill="#3a7cc3"></path><path d="M230 490L210 470L210 450" stroke-width="3.33" stroke="#3a7cc3"></path><path d="M225 490 a5 5 0 1 0 10 0 a5 5 0 1 0 -10 0zM205 450 a5 5 0 1 0 10 0 a5 5 0 1 0 -10 0z" fill="#3a7cc3"></path><path d="M630 310L710 310" stroke-width="3.33" stroke="#3a7cc3"></path><path d="M625 310 a5 5 0 1 0 10 0 a5 5 0 1 0 -10 0zM705 310 a5 5 0 1 0 10 0 a5 5 0 1 0 -10 0z" fill="#3a7cc3"></path><path d="M630 390L630 410L590 450" stroke-width="3.33" stroke="#3a7cc3"></path><path d="M625 390 a5 5 0 1 0 10 0 a5 5 0 1 0 -10 0zM585 450 a5 5 0 1 0 10 0 a5 5 0 1 0 -10 0z" fill="#3a7cc3"></path><path d="M370 50L330 50" stroke-width="3.33" stroke="#3a7cc3"></path><path d="M365 50 a5 5 0 1 0 10 0 a5 5 0 1 0 -10 0zM325 50 a5 5 0 1 0 10 0 a5 5 0 1 0 -10 0z" fill="#3a7cc3"></path><path d="M190 290L190 310L170 330" stroke-width="3.33" stroke="#3a7cc3"></path><path d="M185 290 a5 5 0 1 0 10 0 a5 5 0 1 0 -10 0zM165 330 a5 5 0 1 0 10 0 a5 5 0 1 0 -10 0z" fill="#3a7cc3"></path><path d="M1410 350L1390 370L1370 370" stroke-width="3.33" stroke="#3a7cc3"></path><path d="M1405 350 a5 5 0 1 0 10 0 a5 5 0 1 0 -10 0zM1365 370 a5 5 0 1 0 10 0 a5 5 0 1 0 -10 0z" fill="#3a7cc3"></path><path d="M750 490L750 450" stroke-width="3.33" stroke="#3a7cc3"></path><path d="M745 490 a5 5 0 1 0 10 0 a5 5 0 1 0 -10 0zM745 450 a5 5 0 1 0 10 0 a5 5 0 1 0 -10 0z" fill="#3a7cc3"></path><path d="M1250 510L1250 550" stroke-width="3.33" stroke="#3a7cc3"></path><path d="M1245 510 a5 5 0 1 0 10 0 a5 5 0 1 0 -10 0zM1245 550 a5 5 0 1 0 10 0 a5 5 0 1 0 -10 0z" fill="#3a7cc3"></path><path d="M1150 490L1170 510L1170 530" stroke-width="3.33" stroke="#3a7cc3"></path><path d="M1145 490 a5 5 0 1 0 10 0 a5 5 0 1 0 -10 0zM1165 530 a5 5 0 1 0 10 0 a5 5 0 1 0 -10 0z" fill="#3a7cc3"></path><path d="M810 550L810 470" stroke-width="3.33" stroke="#3a7cc3"></path><path d="M805 550 a5 5 0 1 0 10 0 a5 5 0 1 0 -10 0zM805 470 a5 5 0 1 0 10 0 a5 5 0 1 0 -10 0z" fill="#3a7cc3"></path><path d="M1410 150L1370 150" stroke-width="3.33" stroke="#3a7cc3"></path><path d="M1405 150 a5 5 0 1 0 10 0 a5 5 0 1 0 -10 0zM1365 150 a5 5 0 1 0 10 0 a5 5 0 1 0 -10 0z" fill="#3a7cc3"></path><path d="M950 50L950 30L930 10" stroke-width="3.33" stroke="#3a7cc3"></path><path d="M945 50 a5 5 0 1 0 10 0 a5 5 0 1 0 -10 0zM925 10 a5 5 0 1 0 10 0 a5 5 0 1 0 -10 0z" fill="#3a7cc3"></path><path d="M590 390L570 410L570 430" stroke-width="3.33" stroke="#3a7cc3"></path><path d="M585 390 a5 5 0 1 0 10 0 a5 5 0 1 0 -10 0zM565 430 a5 5 0 1 0 10 0 a5 5 0 1 0 -10 0z" fill="#3a7cc3"></path><path d="M210 530L250 530" stroke-width="3.33" stroke="#3a7cc3"></path><path d="M205 530 a5 5 0 1 0 10 0 a5 5 0 1 0 -10 0zM245 530 a5 5 0 1 0 10 0 a5 5 0 1 0 -10 0z" fill="#3a7cc3"></path><path d="M70 90L50 70L50 50" stroke-width="3.33" stroke="#3a7cc3"></path><path d="M65 90 a5 5 0 1 0 10 0 a5 5 0 1 0 -10 0zM45 50 a5 5 0 1 0 10 0 a5 5 0 1 0 -10 0z" fill="#3a7cc3"></path><path d="M490 70L430 130" stroke-width="3.33" stroke="#3a7cc3"></path><path d="M485 70 a5 5 0 1 0 10 0 a5 5 0 1 0 -10 0zM425 130 a5 5 0 1 0 10 0 a5 5 0 1 0 -10 0z" fill="#3a7cc3"></path><path d="M630 290L670 290" stroke-width="3.33" stroke="#3a7cc3"></path><path d="M625 290 a5 5 0 1 0 10 0 a5 5 0 1 0 -10 0zM665 290 a5 5 0 1 0 10 0 a5 5 0 1 0 -10 0z" fill="#3a7cc3"></path><path d="M1410 270L1370 270" stroke-width="3.33" stroke="#3a7cc3"></path><path d="M1405 270 a5 5 0 1 0 10 0 a5 5 0 1 0 -10 0zM1365 270 a5 5 0 1 0 10 0 a5 5 0 1 0 -10 0z" fill="#3a7cc3"></path><path d="M1010 10L1010 50" stroke-width="3.33" stroke="#3a7cc3"></path><path d="M1005 10 a5 5 0 1 0 10 0 a5 5 0 1 0 -10 0zM1005 50 a5 5 0 1 0 10 0 a5 5 0 1 0 -10 0z" fill="#3a7cc3"></path><path d="M10 430L10 390" stroke-width="3.33" stroke="#3a7cc3"></path><path d="M5 430 a5 5 0 1 0 10 0 a5 5 0 1 0 -10 0zM5 390 a5 5 0 1 0 10 0 a5 5 0 1 0 -10 0z" fill="#3a7cc3"></path><path d="M550 450L590 490" stroke-width="3.33" stroke="#3a7cc3"></path><path d="M545 450 a5 5 0 1 0 10 0 a5 5 0 1 0 -10 0zM585 490 a5 5 0 1 0 10 0 a5 5 0 1 0 -10 0z" fill="#3a7cc3"></path><path d="M550 370L550 410" stroke-width="3.33" stroke="#3a7cc3"></path><path d="M545 370 a5 5 0 1 0 10 0 a5 5 0 1 0 -10 0zM545 410 a5 5 0 1 0 10 0 a5 5 0 1 0 -10 0z" fill="#3a7cc3"></path><path d="M830 470L830 510" stroke-width="3.33" stroke="#3a7cc3"></path><path d="M825 470 a5 5 0 1 0 10 0 a5 5 0 1 0 -10 0zM825 510 a5 5 0 1 0 10 0 a5 5 0 1 0 -10 0z" fill="#3a7cc3"></path><path d="M510 450L510 490" stroke-width="3.33" stroke="#3a7cc3"></path><path d="M505 450 a5 5 0 1 0 10 0 a5 5 0 1 0 -10 0zM505 490 a5 5 0 1 0 10 0 a5 5 0 1 0 -10 0z" fill="#3a7cc3"></path></g></g><defs><mask id="SvgjsMask1147"><rect width="1440" height="560" fill="#ffffff"></rect></mask><linearGradient x1="15.28%" y1="-39.29%" x2="84.72%" y2="139.29%" gradientUnits="userSpaceOnUse" id="SvgjsLinearGradient1148"><stop stop-color="#0e2a47" offset="0"></stop><stop stop-color="#00459e" offset="1"></stop></linearGradient><mask id="SvgjsMask1149"><rect width="1440" height="560" fill="white"></rect><path d="M347.5 90 a2.5 2.5 0 1 0 5 0 a2.5 2.5 0 1 0 -5 0zM727.5 230 a2.5 2.5 0 1 0 5 0 a2.5 2.5 0 1 0 -5 0z" fill="black"></path><path d="M1307.5 490 a2.5 2.5 0 1 0 5 0 a2.5 2.5 0 1 0 -5 0zM1287.5 550 a2.5 2.5 0 1 0 5 0 a2.5 2.5 0 1 0 -5 0z" fill="black"></path><path d="M427.5 390 a2.5 2.5 0 1 0 5 0 a2.5 2.5 0 1 0 -5 0zM807.5 270 a2.5 2.5 0 1 0 5 0 a2.5 2.5 0 1 0 -5 0z" fill="black"></path><path d="M387.5 250 a2.5 2.5 0 1 0 5 0 a2.5 2.5 0 1 0 -5 0zM467.5 330 a2.5 2.5 0 1 0 5 0 a2.5 2.5 0 1 0 -5 0z" fill="black"></path><path d="M1387.5 490 a2.5 2.5 0 1 0 5 0 a2.5 2.5 0 1 0 -5 0zM1047.5 110 a2.5 2.5 0 1 0 5 0 a2.5 2.5 0 1 0 -5 0z" fill="black"></path><path d="M27.5 130 a2.5 2.5 0 1 0 5 0 a2.5 2.5 0 1 0 -5 0zM407.5 110 a2.5 2.5 0 1 0 5 0 a2.5 2.5 0 1 0 -5 0z" fill="black"></path><path d="M1267.5 30 a2.5 2.5 0 1 0 5 0 a2.5 2.5 0 1 0 -5 0zM1107.5 190 a2.5 2.5 0 1 0 5 0 a2.5 2.5 0 1 0 -5 0z" fill="black"></path><path d="M247.5 230 a2.5 2.5 0 1 0 5 0 a2.5 2.5 0 1 0 -5 0zM307.5 550 a2.5 2.5 0 1 0 5 0 a2.5 2.5 0 1 0 -5 0z" fill="black"></path><path d="M607.5 390 a2.5 2.5 0 1 0 5 0 a2.5 2.5 0 1 0 -5 0zM527.5 310 a2.5 2.5 0 1 0 5 0 a2.5 2.5 0 1 0 -5 0z" fill="black"></path><path d="M947.5 10 a2.5 2.5 0 1 0 5 0 a2.5 2.5 0 1 0 -5 0zM1147.5 330 a2.5 2.5 0 1 0 5 0 a2.5 2.5 0 1 0 -5 0z" fill="black"></path><path d="M607.5 150 a2.5 2.5 0 1 0 5 0 a2.5 2.5 0 1 0 -5 0zM247.5 110 a2.5 2.5 0 1 0 5 0 a2.5 2.5 0 1 0 -5 0z" fill="black"></path><path d="M427.5 250 a2.5 2.5 0 1 0 5 0 a2.5 2.5 0 1 0 -5 0zM67.5 190 a2.5 2.5 0 1 0 5 0 a2.5 2.5 0 1 0 -5 0z" fill="black"></path><path d="M867.5 530 a2.5 2.5 0 1 0 5 0 a2.5 2.5 0 1 0 -5 0zM1247.5 390 a2.5 2.5 0 1 0 5 0 a2.5 2.5 0 1 0 -5 0z" fill="black"></path><path d="M947.5 70 a2.5 2.5 0 1 0 5 0 a2.5 2.5 0 1 0 -5 0zM567.5 10 a2.5 2.5 0 1 0 5 0 a2.5 2.5 0 1 0 -5 0z" fill="black"></path><path d="M107.5 490 a2.5 2.5 0 1 0 5 0 a2.5 2.5 0 1 0 -5 0zM147.5 550 a2.5 2.5 0 1 0 5 0 a2.5 2.5 0 1 0 -5 0z" fill="black"></path><path d="M727.5 50 a2.5 2.5 0 1 0 5 0 a2.5 2.5 0 1 0 -5 0zM647.5 130 a2.5 2.5 0 1 0 5 0 a2.5 2.5 0 1 0 -5 0z" fill="black"></path><path d="M207.5 430 a2.5 2.5 0 1 0 5 0 a2.5 2.5 0 1 0 -5 0zM287.5 290 a2.5 2.5 0 1 0 5 0 a2.5 2.5 0 1 0 -5 0z" fill="black"></path><path d="M1347.5 490 a2.5 2.5 0 1 0 5 0 a2.5 2.5 0 1 0 -5 0zM967.5 550 a2.5 2.5 0 1 0 5 0 a2.5 2.5 0 1 0 -5 0z" fill="black"></path><path d="M187.5 10 a2.5 2.5 0 1 0 5 0 a2.5 2.5 0 1 0 -5 0zM227.5 110 a2.5 2.5 0 1 0 5 0 a2.5 2.5 0 1 0 -5 0z" fill="black"></path><path d="M647.5 230 a2.5 2.5 0 1 0 5 0 a2.5 2.5 0 1 0 -5 0zM1027.5 430 a2.5 2.5 0 1 0 5 0 a2.5 2.5 0 1 0 -5 0z" fill="black"></path><path d="M887.5 230 a2.5 2.5 0 1 0 5 0 a2.5 2.5 0 1 0 -5 0zM747.5 30 a2.5 2.5 0 1 0 5 0 a2.5 2.5 0 1 0 -5 0z" fill="black"></path><path d="M107.5 470 a2.5 2.5 0 1 0 5 0 a2.5 2.5 0 1 0 -5 0zM87.5 210 a2.5 2.5 0 1 0 5 0 a2.5 2.5 0 1 0 -5 0z" fill="black"></path><path d="M1327.5 270 a2.5 2.5 0 1 0 5 0 a2.5 2.5 0 1 0 -5 0zM1287.5 110 a2.5 2.5 0 1 0 5 0 a2.5 2.5 0 1 0 -5 0z" fill="black"></path><path d="M487.5 210 a2.5 2.5 0 1 0 5 0 a2.5 2.5 0 1 0 -5 0zM667.5 190 a2.5 2.5 0 1 0 5 0 a2.5 2.5 0 1 0 -5 0z" fill="black"></path><path d="M987.5 290 a2.5 2.5 0 1 0 5 0 a2.5 2.5 0 1 0 -5 0zM947.5 330 a2.5 2.5 0 1 0 5 0 a2.5 2.5 0 1 0 -5 0z" fill="black"></path><path d="M227.5 250 a2.5 2.5 0 1 0 5 0 a2.5 2.5 0 1 0 -5 0zM7.5 550 a2.5 2.5 0 1 0 5 0 a2.5 2.5 0 1 0 -5 0z" fill="black"></path><path d="M1167.5 30 a2.5 2.5 0 1 0 5 0 a2.5 2.5 0 1 0 -5 0zM1067.5 10 a2.5 2.5 0 1 0 5 0 a2.5 2.5 0 1 0 -5 0z" fill="black"></path><path d="M1287.5 490 a2.5 2.5 0 1 0 5 0 a2.5 2.5 0 1 0 -5 0zM987.5 550 a2.5 2.5 0 1 0 5 0 a2.5 2.5 0 1 0 -5 0z" fill="black"></path><path d="M1327.5 230 a2.5 2.5 0 1 0 5 0 a2.5 2.5 0 1 0 -5 0zM1427.5 230 a2.5 2.5 0 1 0 5 0 a2.5 2.5 0 1 0 -5 0z" fill="black"></path><path d="M887.5 70 a2.5 2.5 0 1 0 5 0 a2.5 2.5 0 1 0 -5 0zM807.5 230 a2.5 2.5 0 1 0 5 0 a2.5 2.5 0 1 0 -5 0z" fill="black"></path><path d="M127.5 110 a2.5 2.5 0 1 0 5 0 a2.5 2.5 0 1 0 -5 0zM7.5 10 a2.5 2.5 0 1 0 5 0 a2.5 2.5 0 1 0 -5 0z" fill="black"></path><path d="M607.5 230 a2.5 2.5 0 1 0 5 0 a2.5 2.5 0 1 0 -5 0zM627.5 250 a2.5 2.5 0 1 0 5 0 a2.5 2.5 0 1 0 -5 0z" fill="black"></path><path d="M807.5 130 a2.5 2.5 0 1 0 5 0 a2.5 2.5 0 1 0 -5 0zM747.5 70 a2.5 2.5 0 1 0 5 0 a2.5 2.5 0 1 0 -5 0z" fill="black"></path><path d="M1187.5 450 a2.5 2.5 0 1 0 5 0 a2.5 2.5 0 1 0 -5 0zM1247.5 450 a2.5 2.5 0 1 0 5 0 a2.5 2.5 0 1 0 -5 0z" fill="black"></path><path d="M987.5 130 a2.5 2.5 0 1 0 5 0 a2.5 2.5 0 1 0 -5 0zM987.5 210 a2.5 2.5 0 1 0 5 0 a2.5 2.5 0 1 0 -5 0z" fill="black"></path><path d="M1107.5 70 a2.5 2.5 0 1 0 5 0 a2.5 2.5 0 1 0 -5 0zM1087.5 150 a2.5 2.5 0 1 0 5 0 a2.5 2.5 0 1 0 -5 0z" fill="black"></path><path d="M67.5 550 a2.5 2.5 0 1 0 5 0 a2.5 2.5 0 1 0 -5 0zM27.5 550 a2.5 2.5 0 1 0 5 0 a2.5 2.5 0 1 0 -5 0z" fill="black"></path><path d="M1307.5 170 a2.5 2.5 0 1 0 5 0 a2.5 2.5 0 1 0 -5 0zM1287.5 150 a2.5 2.5 0 1 0 5 0 a2.5 2.5 0 1 0 -5 0z" fill="black"></path><path d="M667.5 430 a2.5 2.5 0 1 0 5 0 a2.5 2.5 0 1 0 -5 0zM747.5 290 a2.5 2.5 0 1 0 5 0 a2.5 2.5 0 1 0 -5 0z" fill="black"></path><path d="M407.5 470 a2.5 2.5 0 1 0 5 0 a2.5 2.5 0 1 0 -5 0zM527.5 330 a2.5 2.5 0 1 0 5 0 a2.5 2.5 0 1 0 -5 0z" fill="black"></path><path d="M327.5 450 a2.5 2.5 0 1 0 5 0 a2.5 2.5 0 1 0 -5 0zM267.5 330 a2.5 2.5 0 1 0 5 0 a2.5 2.5 0 1 0 -5 0z" fill="black"></path><path d="M1367.5 190 a2.5 2.5 0 1 0 5 0 a2.5 2.5 0 1 0 -5 0zM1427.5 190 a2.5 2.5 0 1 0 5 0 a2.5 2.5 0 1 0 -5 0z" fill="black"></path><path d="M987.5 70 a2.5 2.5 0 1 0 5 0 a2.5 2.5 0 1 0 -5 0zM1027.5 130 a2.5 2.5 0 1 0 5 0 a2.5 2.5 0 1 0 -5 0z" fill="black"></path><path d="M307.5 530 a2.5 2.5 0 1 0 5 0 a2.5 2.5 0 1 0 -5 0zM327.5 530 a2.5 2.5 0 1 0 5 0 a2.5 2.5 0 1 0 -5 0z" fill="black"></path><path d="M407.5 290 a2.5 2.5 0 1 0 5 0 a2.5 2.5 0 1 0 -5 0zM87.5 170 a2.5 2.5 0 1 0 5 0 a2.5 2.5 0 1 0 -5 0z" fill="black"></path><path d="M647.5 250 a2.5 2.5 0 1 0 5 0 a2.5 2.5 0 1 0 -5 0zM707.5 250 a2.5 2.5 0 1 0 5 0 a2.5 2.5 0 1 0 -5 0z" fill="black"></path><path d="M1407.5 390 a2.5 2.5 0 1 0 5 0 a2.5 2.5 0 1 0 -5 0zM1427.5 250 a2.5 2.5 0 1 0 5 0 a2.5 2.5 0 1 0 -5 0z" fill="black"></path><path d="M1227.5 170 a2.5 2.5 0 1 0 5 0 a2.5 2.5 0 1 0 -5 0zM1187.5 170 a2.5 2.5 0 1 0 5 0 a2.5 2.5 0 1 0 -5 0z" fill="black"></path><path d="M347.5 410 a2.5 2.5 0 1 0 5 0 a2.5 2.5 0 1 0 -5 0zM287.5 310 a2.5 2.5 0 1 0 5 0 a2.5 2.5 0 1 0 -5 0z" fill="black"></path><path d="M967.5 510 a2.5 2.5 0 1 0 5 0 a2.5 2.5 0 1 0 -5 0zM967.5 390 a2.5 2.5 0 1 0 5 0 a2.5 2.5 0 1 0 -5 0z" fill="black"></path><path d="M147.5 430 a2.5 2.5 0 1 0 5 0 a2.5 2.5 0 1 0 -5 0zM287.5 550 a2.5 2.5 0 1 0 5 0 a2.5 2.5 0 1 0 -5 0z" fill="black"></path><path d="M87.5 390 a2.5 2.5 0 1 0 5 0 a2.5 2.5 0 1 0 -5 0zM7.5 30 a2.5 2.5 0 1 0 5 0 a2.5 2.5 0 1 0 -5 0z" fill="black"></path><path d="M767.5 430 a2.5 2.5 0 1 0 5 0 a2.5 2.5 0 1 0 -5 0zM767.5 550 a2.5 2.5 0 1 0 5 0 a2.5 2.5 0 1 0 -5 0z" fill="black"></path><path d="M467.5 130 a2.5 2.5 0 1 0 5 0 a2.5 2.5 0 1 0 -5 0zM647.5 190 a2.5 2.5 0 1 0 5 0 a2.5 2.5 0 1 0 -5 0z" fill="black"></path><path d="M407.5 310 a2.5 2.5 0 1 0 5 0 a2.5 2.5 0 1 0 -5 0zM307.5 270 a2.5 2.5 0 1 0 5 0 a2.5 2.5 0 1 0 -5 0z" fill="black"></path><path d="M127.5 290 a2.5 2.5 0 1 0 5 0 a2.5 2.5 0 1 0 -5 0zM207.5 230 a2.5 2.5 0 1 0 5 0 a2.5 2.5 0 1 0 -5 0z" fill="black"></path><path d="M1187.5 510 a2.5 2.5 0 1 0 5 0 a2.5 2.5 0 1 0 -5 0zM1127.5 450 a2.5 2.5 0 1 0 5 0 a2.5 2.5 0 1 0 -5 0z" fill="black"></path><path d="M1347.5 10 a2.5 2.5 0 1 0 5 0 a2.5 2.5 0 1 0 -5 0zM1227.5 90 a2.5 2.5 0 1 0 5 0 a2.5 2.5 0 1 0 -5 0z" fill="black"></path><path d="M327.5 490 a2.5 2.5 0 1 0 5 0 a2.5 2.5 0 1 0 -5 0zM367.5 530 a2.5 2.5 0 1 0 5 0 a2.5 2.5 0 1 0 -5 0z" fill="black"></path><path d="M87.5 510 a2.5 2.5 0 1 0 5 0 a2.5 2.5 0 1 0 -5 0zM127.5 550 a2.5 2.5 0 1 0 5 0 a2.5 2.5 0 1 0 -5 0z" fill="black"></path><path d="M1167.5 330 a2.5 2.5 0 1 0 5 0 a2.5 2.5 0 1 0 -5 0zM787.5 210 a2.5 2.5 0 1 0 5 0 a2.5 2.5 0 1 0 -5 0z" fill="black"></path><path d="M847.5 550 a2.5 2.5 0 1 0 5 0 a2.5 2.5 0 1 0 -5 0zM747.5 370 a2.5 2.5 0 1 0 5 0 a2.5 2.5 0 1 0 -5 0z" fill="black"></path><path d="M87.5 250 a2.5 2.5 0 1 0 5 0 a2.5 2.5 0 1 0 -5 0zM167.5 250 a2.5 2.5 0 1 0 5 0 a2.5 2.5 0 1 0 -5 0z" fill="black"></path><path d="M867.5 350 a2.5 2.5 0 1 0 5 0 a2.5 2.5 0 1 0 -5 0zM827.5 350 a2.5 2.5 0 1 0 5 0 a2.5 2.5 0 1 0 -5 0z" fill="black"></path><path d="M1287.5 130 a2.5 2.5 0 1 0 5 0 a2.5 2.5 0 1 0 -5 0zM1427.5 10 a2.5 2.5 0 1 0 5 0 a2.5 2.5 0 1 0 -5 0z" fill="black"></path><path d="M1367.5 490 a2.5 2.5 0 1 0 5 0 a2.5 2.5 0 1 0 -5 0zM1427.5 550 a2.5 2.5 0 1 0 5 0 a2.5 2.5 0 1 0 -5 0z" fill="black"></path><path d="M127.5 330 a2.5 2.5 0 1 0 5 0 a2.5 2.5 0 1 0 -5 0zM207.5 250 a2.5 2.5 0 1 0 5 0 a2.5 2.5 0 1 0 -5 0z" fill="black"></path><path d="M1387.5 350 a2.5 2.5 0 1 0 5 0 a2.5 2.5 0 1 0 -5 0zM1307.5 390 a2.5 2.5 0 1 0 5 0 a2.5 2.5 0 1 0 -5 0z" fill="black"></path><path d="M1327.5 90 a2.5 2.5 0 1 0 5 0 a2.5 2.5 0 1 0 -5 0zM1247.5 90 a2.5 2.5 0 1 0 5 0 a2.5 2.5 0 1 0 -5 0z" fill="black"></path><path d="M647.5 530 a2.5 2.5 0 1 0 5 0 a2.5 2.5 0 1 0 -5 0zM507.5 390 a2.5 2.5 0 1 0 5 0 a2.5 2.5 0 1 0 -5 0z" fill="black"></path><path d="M707.5 550 a2.5 2.5 0 1 0 5 0 a2.5 2.5 0 1 0 -5 0zM387.5 550 a2.5 2.5 0 1 0 5 0 a2.5 2.5 0 1 0 -5 0z" fill="black"></path><path d="M1067.5 210 a2.5 2.5 0 1 0 5 0 a2.5 2.5 0 1 0 -5 0zM1007.5 150 a2.5 2.5 0 1 0 5 0 a2.5 2.5 0 1 0 -5 0z" fill="black"></path><path d="M87.5 530 a2.5 2.5 0 1 0 5 0 a2.5 2.5 0 1 0 -5 0zM47.5 530 a2.5 2.5 0 1 0 5 0 a2.5 2.5 0 1 0 -5 0z" fill="black"></path><path d="M1007.5 310 a2.5 2.5 0 1 0 5 0 a2.5 2.5 0 1 0 -5 0zM967.5 350 a2.5 2.5 0 1 0 5 0 a2.5 2.5 0 1 0 -5 0z" fill="black"></path><path d="M1367.5 90 a2.5 2.5 0 1 0 5 0 a2.5 2.5 0 1 0 -5 0zM1267.5 90 a2.5 2.5 0 1 0 5 0 a2.5 2.5 0 1 0 -5 0z" fill="black"></path><path d="M927.5 110 a2.5 2.5 0 1 0 5 0 a2.5 2.5 0 1 0 -5 0zM907.5 70 a2.5 2.5 0 1 0 5 0 a2.5 2.5 0 1 0 -5 0z" fill="black"></path><path d="M487.5 530 a2.5 2.5 0 1 0 5 0 a2.5 2.5 0 1 0 -5 0zM627.5 530 a2.5 2.5 0 1 0 5 0 a2.5 2.5 0 1 0 -5 0z" fill="black"></path><path d="M527.5 150 a2.5 2.5 0 1 0 5 0 a2.5 2.5 0 1 0 -5 0zM567.5 110 a2.5 2.5 0 1 0 5 0 a2.5 2.5 0 1 0 -5 0z" fill="black"></path><path d="M947.5 430 a2.5 2.5 0 1 0 5 0 a2.5 2.5 0 1 0 -5 0zM1027.5 450 a2.5 2.5 0 1 0 5 0 a2.5 2.5 0 1 0 -5 0z" fill="black"></path><path d="M1227.5 310 a2.5 2.5 0 1 0 5 0 a2.5 2.5 0 1 0 -5 0zM1407.5 310 a2.5 2.5 0 1 0 5 0 a2.5 2.5 0 1 0 -5 0z" fill="black"></path><path d="M367.5 170 a2.5 2.5 0 1 0 5 0 a2.5 2.5 0 1 0 -5 0zM507.5 190 a2.5 2.5 0 1 0 5 0 a2.5 2.5 0 1 0 -5 0z" fill="black"></path><path d="M287.5 50 a2.5 2.5 0 1 0 5 0 a2.5 2.5 0 1 0 -5 0zM287.5 10 a2.5 2.5 0 1 0 5 0 a2.5 2.5 0 1 0 -5 0z" fill="black"></path><path d="M1227.5 490 a2.5 2.5 0 1 0 5 0 a2.5 2.5 0 1 0 -5 0zM1027.5 550 a2.5 2.5 0 1 0 5 0 a2.5 2.5 0 1 0 -5 0z" fill="black"></path><path d="M647.5 490 a2.5 2.5 0 1 0 5 0 a2.5 2.5 0 1 0 -5 0zM747.5 530 a2.5 2.5 0 1 0 5 0 a2.5 2.5 0 1 0 -5 0z" fill="black"></path><path d="M507.5 410 a2.5 2.5 0 1 0 5 0 a2.5 2.5 0 1 0 -5 0zM407.5 530 a2.5 2.5 0 1 0 5 0 a2.5 2.5 0 1 0 -5 0z" fill="black"></path><path d="M607.5 510 a2.5 2.5 0 1 0 5 0 a2.5 2.5 0 1 0 -5 0zM427.5 510 a2.5 2.5 0 1 0 5 0 a2.5 2.5 0 1 0 -5 0z" fill="black"></path><path d="M167.5 110 a2.5 2.5 0 1 0 5 0 a2.5 2.5 0 1 0 -5 0zM207.5 110 a2.5 2.5 0 1 0 5 0 a2.5 2.5 0 1 0 -5 0z" fill="black"></path><path d="M367.5 390 a2.5 2.5 0 1 0 5 0 a2.5 2.5 0 1 0 -5 0zM367.5 510 a2.5 2.5 0 1 0 5 0 a2.5 2.5 0 1 0 -5 0z" fill="black"></path><path d="M1207.5 230 a2.5 2.5 0 1 0 5 0 a2.5 2.5 0 1 0 -5 0zM1287.5 230 a2.5 2.5 0 1 0 5 0 a2.5 2.5 0 1 0 -5 0z" fill="black"></path><path d="M347.5 150 a2.5 2.5 0 1 0 5 0 a2.5 2.5 0 1 0 -5 0zM467.5 150 a2.5 2.5 0 1 0 5 0 a2.5 2.5 0 1 0 -5 0z" fill="black"></path><path d="M167.5 210 a2.5 2.5 0 1 0 5 0 a2.5 2.5 0 1 0 -5 0zM207.5 190 a2.5 2.5 0 1 0 5 0 a2.5 2.5 0 1 0 -5 0z" fill="black"></path><path d="M107.5 270 a2.5 2.5 0 1 0 5 0 a2.5 2.5 0 1 0 -5 0zM147.5 270 a2.5 2.5 0 1 0 5 0 a2.5 2.5 0 1 0 -5 0z" fill="black"></path><path d="M787.5 490 a2.5 2.5 0 1 0 5 0 a2.5 2.5 0 1 0 -5 0zM807.5 450 a2.5 2.5 0 1 0 5 0 a2.5 2.5 0 1 0 -5 0z" fill="black"></path><path d="M867.5 230 a2.5 2.5 0 1 0 5 0 a2.5 2.5 0 1 0 -5 0zM727.5 90 a2.5 2.5 0 1 0 5 0 a2.5 2.5 0 1 0 -5 0z" fill="black"></path><path d="M1347.5 50 a2.5 2.5 0 1 0 5 0 a2.5 2.5 0 1 0 -5 0zM1387.5 70 a2.5 2.5 0 1 0 5 0 a2.5 2.5 0 1 0 -5 0z" fill="black"></path><path d="M307.5 30 a2.5 2.5 0 1 0 5 0 a2.5 2.5 0 1 0 -5 0zM307.5 90 a2.5 2.5 0 1 0 5 0 a2.5 2.5 0 1 0 -5 0z" fill="black"></path><path d="M747.5 430 a2.5 2.5 0 1 0 5 0 a2.5 2.5 0 1 0 -5 0zM727.5 390 a2.5 2.5 0 1 0 5 0 a2.5 2.5 0 1 0 -5 0z" fill="black"></path><path d="M487.5 290 a2.5 2.5 0 1 0 5 0 a2.5 2.5 0 1 0 -5 0zM487.5 250 a2.5 2.5 0 1 0 5 0 a2.5 2.5 0 1 0 -5 0z" fill="black"></path><path d="M267.5 530 a2.5 2.5 0 1 0 5 0 a2.5 2.5 0 1 0 -5 0zM187.5 550 a2.5 2.5 0 1 0 5 0 a2.5 2.5 0 1 0 -5 0z" fill="black"></path><path d="M927.5 510 a2.5 2.5 0 1 0 5 0 a2.5 2.5 0 1 0 -5 0zM767.5 290 a2.5 2.5 0 1 0 5 0 a2.5 2.5 0 1 0 -5 0z" fill="black"></path><path d="M687.5 450 a2.5 2.5 0 1 0 5 0 a2.5 2.5 0 1 0 -5 0zM707.5 410 a2.5 2.5 0 1 0 5 0 a2.5 2.5 0 1 0 -5 0z" fill="black"></path><path d="M287.5 490 a2.5 2.5 0 1 0 5 0 a2.5 2.5 0 1 0 -5 0zM287.5 390 a2.5 2.5 0 1 0 5 0 a2.5 2.5 0 1 0 -5 0z" fill="black"></path><path d="M87.5 270 a2.5 2.5 0 1 0 5 0 a2.5 2.5 0 1 0 -5 0zM147.5 370 a2.5 2.5 0 1 0 5 0 a2.5 2.5 0 1 0 -5 0z" fill="black"></path><path d="M667.5 90 a2.5 2.5 0 1 0 5 0 a2.5 2.5 0 1 0 -5 0zM607.5 90 a2.5 2.5 0 1 0 5 0 a2.5 2.5 0 1 0 -5 0z" fill="black"></path><path d="M1127.5 70 a2.5 2.5 0 1 0 5 0 a2.5 2.5 0 1 0 -5 0zM1327.5 10 a2.5 2.5 0 1 0 5 0 a2.5 2.5 0 1 0 -5 0z" fill="black"></path><path d="M527.5 490 a2.5 2.5 0 1 0 5 0 a2.5 2.5 0 1 0 -5 0zM527.5 430 a2.5 2.5 0 1 0 5 0 a2.5 2.5 0 1 0 -5 0z" fill="black"></path><path d="M347.5 430 a2.5 2.5 0 1 0 5 0 a2.5 2.5 0 1 0 -5 0zM347.5 490 a2.5 2.5 0 1 0 5 0 a2.5 2.5 0 1 0 -5 0z" fill="black"></path><path d="M1327.5 330 a2.5 2.5 0 1 0 5 0 a2.5 2.5 0 1 0 -5 0zM1407.5 330 a2.5 2.5 0 1 0 5 0 a2.5 2.5 0 1 0 -5 0z" fill="black"></path><path d="M1047.5 50 a2.5 2.5 0 1 0 5 0 a2.5 2.5 0 1 0 -5 0zM1007.5 110 a2.5 2.5 0 1 0 5 0 a2.5 2.5 0 1 0 -5 0z" fill="black"></path><path d="M967.5 410 a2.5 2.5 0 1 0 5 0 a2.5 2.5 0 1 0 -5 0zM827.5 290 a2.5 2.5 0 1 0 5 0 a2.5 2.5 0 1 0 -5 0z" fill="black"></path><path d="M947.5 450 a2.5 2.5 0 1 0 5 0 a2.5 2.5 0 1 0 -5 0zM987.5 490 a2.5 2.5 0 1 0 5 0 a2.5 2.5 0 1 0 -5 0z" fill="black"></path><path d="M867.5 90 a2.5 2.5 0 1 0 5 0 a2.5 2.5 0 1 0 -5 0zM927.5 210 a2.5 2.5 0 1 0 5 0 a2.5 2.5 0 1 0 -5 0z" fill="black"></path><path d="M787.5 510 a2.5 2.5 0 1 0 5 0 a2.5 2.5 0 1 0 -5 0zM787.5 550 a2.5 2.5 0 1 0 5 0 a2.5 2.5 0 1 0 -5 0z" fill="black"></path><path d="M1327.5 450 a2.5 2.5 0 1 0 5 0 a2.5 2.5 0 1 0 -5 0zM1267.5 390 a2.5 2.5 0 1 0 5 0 a2.5 2.5 0 1 0 -5 0z" fill="black"></path><path d="M1107.5 490 a2.5 2.5 0 1 0 5 0 a2.5 2.5 0 1 0 -5 0zM1047.5 530 a2.5 2.5 0 1 0 5 0 a2.5 2.5 0 1 0 -5 0z" fill="black"></path><path d="M627.5 370 a2.5 2.5 0 1 0 5 0 a2.5 2.5 0 1 0 -5 0zM547.5 290 a2.5 2.5 0 1 0 5 0 a2.5 2.5 0 1 0 -5 0z" fill="black"></path><path d="M787.5 290 a2.5 2.5 0 1 0 5 0 a2.5 2.5 0 1 0 -5 0zM867.5 430 a2.5 2.5 0 1 0 5 0 a2.5 2.5 0 1 0 -5 0z" fill="black"></path><path d="M567.5 30 a2.5 2.5 0 1 0 5 0 a2.5 2.5 0 1 0 -5 0zM527.5 10 a2.5 2.5 0 1 0 5 0 a2.5 2.5 0 1 0 -5 0z" fill="black"></path><path d="M427.5 230 a2.5 2.5 0 1 0 5 0 a2.5 2.5 0 1 0 -5 0zM367.5 190 a2.5 2.5 0 1 0 5 0 a2.5 2.5 0 1 0 -5 0z" fill="black"></path><path d="M87.5 230 a2.5 2.5 0 1 0 5 0 a2.5 2.5 0 1 0 -5 0zM27.5 230 a2.5 2.5 0 1 0 5 0 a2.5 2.5 0 1 0 -5 0z" fill="black"></path><path d="M407.5 430 a2.5 2.5 0 1 0 5 0 a2.5 2.5 0 1 0 -5 0zM367.5 290 a2.5 2.5 0 1 0 5 0 a2.5 2.5 0 1 0 -5 0z" fill="black"></path><path d="M187.5 270 a2.5 2.5 0 1 0 5 0 a2.5 2.5 0 1 0 -5 0zM147.5 330 a2.5 2.5 0 1 0 5 0 a2.5 2.5 0 1 0 -5 0z" fill="black"></path><path d="M1067.5 290 a2.5 2.5 0 1 0 5 0 a2.5 2.5 0 1 0 -5 0zM1127.5 350 a2.5 2.5 0 1 0 5 0 a2.5 2.5 0 1 0 -5 0z" fill="black"></path><path d="M207.5 10 a2.5 2.5 0 1 0 5 0 a2.5 2.5 0 1 0 -5 0zM267.5 10 a2.5 2.5 0 1 0 5 0 a2.5 2.5 0 1 0 -5 0z" fill="black"></path><path d="M687.5 290 a2.5 2.5 0 1 0 5 0 a2.5 2.5 0 1 0 -5 0zM727.5 290 a2.5 2.5 0 1 0 5 0 a2.5 2.5 0 1 0 -5 0z" fill="black"></path><path d="M847.5 130 a2.5 2.5 0 1 0 5 0 a2.5 2.5 0 1 0 -5 0zM907.5 210 a2.5 2.5 0 1 0 5 0 a2.5 2.5 0 1 0 -5 0z" fill="black"></path><path d="M7.5 450 a2.5 2.5 0 1 0 5 0 a2.5 2.5 0 1 0 -5 0zM7.5 350 a2.5 2.5 0 1 0 5 0 a2.5 2.5 0 1 0 -5 0z" fill="black"></path><path d="M67.5 250 a2.5 2.5 0 1 0 5 0 a2.5 2.5 0 1 0 -5 0zM27.5 290 a2.5 2.5 0 1 0 5 0 a2.5 2.5 0 1 0 -5 0z" fill="black"></path><path d="M267.5 210 a2.5 2.5 0 1 0 5 0 a2.5 2.5 0 1 0 -5 0zM347.5 230 a2.5 2.5 0 1 0 5 0 a2.5 2.5 0 1 0 -5 0z" fill="black"></path><path d="M1287.5 190 a2.5 2.5 0 1 0 5 0 a2.5 2.5 0 1 0 -5 0zM1207.5 150 a2.5 2.5 0 1 0 5 0 a2.5 2.5 0 1 0 -5 0z" fill="black"></path><path d="M327.5 350 a2.5 2.5 0 1 0 5 0 a2.5 2.5 0 1 0 -5 0zM287.5 330 a2.5 2.5 0 1 0 5 0 a2.5 2.5 0 1 0 -5 0z" fill="black"></path><path d="M1387.5 110 a2.5 2.5 0 1 0 5 0 a2.5 2.5 0 1 0 -5 0zM1327.5 210 a2.5 2.5 0 1 0 5 0 a2.5 2.5 0 1 0 -5 0z" fill="black"></path><path d="M527.5 70 a2.5 2.5 0 1 0 5 0 a2.5 2.5 0 1 0 -5 0zM487.5 130 a2.5 2.5 0 1 0 5 0 a2.5 2.5 0 1 0 -5 0z" fill="black"></path><path d="M1127.5 490 a2.5 2.5 0 1 0 5 0 a2.5 2.5 0 1 0 -5 0zM1127.5 530 a2.5 2.5 0 1 0 5 0 a2.5 2.5 0 1 0 -5 0z" fill="black"></path><path d="M47.5 470 a2.5 2.5 0 1 0 5 0 a2.5 2.5 0 1 0 -5 0zM107.5 410 a2.5 2.5 0 1 0 5 0 a2.5 2.5 0 1 0 -5 0z" fill="black"></path><path d="M1287.5 350 a2.5 2.5 0 1 0 5 0 a2.5 2.5 0 1 0 -5 0zM1247.5 330 a2.5 2.5 0 1 0 5 0 a2.5 2.5 0 1 0 -5 0z" fill="black"></path><path d="M1227.5 470 a2.5 2.5 0 1 0 5 0 a2.5 2.5 0 1 0 -5 0zM1147.5 450 a2.5 2.5 0 1 0 5 0 a2.5 2.5 0 1 0 -5 0z" fill="black"></path><path d="M907.5 530 a2.5 2.5 0 1 0 5 0 a2.5 2.5 0 1 0 -5 0zM947.5 530 a2.5 2.5 0 1 0 5 0 a2.5 2.5 0 1 0 -5 0z" fill="black"></path><path d="M647.5 370 a2.5 2.5 0 1 0 5 0 a2.5 2.5 0 1 0 -5 0zM727.5 310 a2.5 2.5 0 1 0 5 0 a2.5 2.5 0 1 0 -5 0z" fill="black"></path><path d="M447.5 230 a2.5 2.5 0 1 0 5 0 a2.5 2.5 0 1 0 -5 0zM447.5 190 a2.5 2.5 0 1 0 5 0 a2.5 2.5 0 1 0 -5 0z" fill="black"></path><path d="M727.5 190 a2.5 2.5 0 1 0 5 0 a2.5 2.5 0 1 0 -5 0zM747.5 130 a2.5 2.5 0 1 0 5 0 a2.5 2.5 0 1 0 -5 0z" fill="black"></path><path d="M1107.5 50 a2.5 2.5 0 1 0 5 0 a2.5 2.5 0 1 0 -5 0zM1107.5 10 a2.5 2.5 0 1 0 5 0 a2.5 2.5 0 1 0 -5 0z" fill="black"></path><path d="M1327.5 550 a2.5 2.5 0 1 0 5 0 a2.5 2.5 0 1 0 -5 0zM1367.5 510 a2.5 2.5 0 1 0 5 0 a2.5 2.5 0 1 0 -5 0z" fill="black"></path><path d="M727.5 30 a2.5 2.5 0 1 0 5 0 a2.5 2.5 0 1 0 -5 0zM567.5 50 a2.5 2.5 0 1 0 5 0 a2.5 2.5 0 1 0 -5 0z" fill="black"></path><path d="M707.5 330 a2.5 2.5 0 1 0 5 0 a2.5 2.5 0 1 0 -5 0zM567.5 290 a2.5 2.5 0 1 0 5 0 a2.5 2.5 0 1 0 -5 0z" fill="black"></path><path d="M1387.5 410 a2.5 2.5 0 1 0 5 0 a2.5 2.5 0 1 0 -5 0zM1427.5 410 a2.5 2.5 0 1 0 5 0 a2.5 2.5 0 1 0 -5 0z" fill="black"></path><path d="M1367.5 430 a2.5 2.5 0 1 0 5 0 a2.5 2.5 0 1 0 -5 0zM1347.5 370 a2.5 2.5 0 1 0 5 0 a2.5 2.5 0 1 0 -5 0z" fill="black"></path><path d="M27.5 90 a2.5 2.5 0 1 0 5 0 a2.5 2.5 0 1 0 -5 0zM27.5 50 a2.5 2.5 0 1 0 5 0 a2.5 2.5 0 1 0 -5 0z" fill="black"></path><path d="M927.5 450 a2.5 2.5 0 1 0 5 0 a2.5 2.5 0 1 0 -5 0zM887.5 350 a2.5 2.5 0 1 0 5 0 a2.5 2.5 0 1 0 -5 0z" fill="black"></path><path d="M1407.5 170 a2.5 2.5 0 1 0 5 0 a2.5 2.5 0 1 0 -5 0zM1347.5 170 a2.5 2.5 0 1 0 5 0 a2.5 2.5 0 1 0 -5 0z" fill="black"></path><path d="M1027.5 70 a2.5 2.5 0 1 0 5 0 a2.5 2.5 0 1 0 -5 0zM1027.5 10 a2.5 2.5 0 1 0 5 0 a2.5 2.5 0 1 0 -5 0z" fill="black"></path><path d="M67.5 350 a2.5 2.5 0 1 0 5 0 a2.5 2.5 0 1 0 -5 0zM67.5 270 a2.5 2.5 0 1 0 5 0 a2.5 2.5 0 1 0 -5 0z" fill="black"></path><path d="M1007.5 370 a2.5 2.5 0 1 0 5 0 a2.5 2.5 0 1 0 -5 0zM1087.5 370 a2.5 2.5 0 1 0 5 0 a2.5 2.5 0 1 0 -5 0z" fill="black"></path><path d="M87.5 190 a2.5 2.5 0 1 0 5 0 a2.5 2.5 0 1 0 -5 0zM167.5 190 a2.5 2.5 0 1 0 5 0 a2.5 2.5 0 1 0 -5 0z" fill="black"></path><path d="M7.5 490 a2.5 2.5 0 1 0 5 0 a2.5 2.5 0 1 0 -5 0zM87.5 410 a2.5 2.5 0 1 0 5 0 a2.5 2.5 0 1 0 -5 0z" fill="black"></path><path d="M1107.5 150 a2.5 2.5 0 1 0 5 0 a2.5 2.5 0 1 0 -5 0zM1147.5 30 a2.5 2.5 0 1 0 5 0 a2.5 2.5 0 1 0 -5 0z" fill="black"></path><path d="M947.5 310 a2.5 2.5 0 1 0 5 0 a2.5 2.5 0 1 0 -5 0zM947.5 270 a2.5 2.5 0 1 0 5 0 a2.5 2.5 0 1 0 -5 0z" fill="black"></path><path d="M267.5 50 a2.5 2.5 0 1 0 5 0 a2.5 2.5 0 1 0 -5 0zM287.5 90 a2.5 2.5 0 1 0 5 0 a2.5 2.5 0 1 0 -5 0z" fill="black"></path><path d="M647.5 50 a2.5 2.5 0 1 0 5 0 a2.5 2.5 0 1 0 -5 0zM607.5 70 a2.5 2.5 0 1 0 5 0 a2.5 2.5 0 1 0 -5 0z" fill="black"></path><path d="M67.5 510 a2.5 2.5 0 1 0 5 0 a2.5 2.5 0 1 0 -5 0zM87.5 470 a2.5 2.5 0 1 0 5 0 a2.5 2.5 0 1 0 -5 0z" fill="black"></path><path d="M647.5 410 a2.5 2.5 0 1 0 5 0 a2.5 2.5 0 1 0 -5 0zM687.5 490 a2.5 2.5 0 1 0 5 0 a2.5 2.5 0 1 0 -5 0z" fill="black"></path><path d="M187.5 390 a2.5 2.5 0 1 0 5 0 a2.5 2.5 0 1 0 -5 0zM187.5 490 a2.5 2.5 0 1 0 5 0 a2.5 2.5 0 1 0 -5 0z" fill="black"></path><path d="M1007.5 330 a2.5 2.5 0 1 0 5 0 a2.5 2.5 0 1 0 -5 0zM1067.5 350 a2.5 2.5 0 1 0 5 0 a2.5 2.5 0 1 0 -5 0z" fill="black"></path><path d="M1087.5 250 a2.5 2.5 0 1 0 5 0 a2.5 2.5 0 1 0 -5 0zM1247.5 370 a2.5 2.5 0 1 0 5 0 a2.5 2.5 0 1 0 -5 0z" fill="black"></path><path d="M1347.5 430 a2.5 2.5 0 1 0 5 0 a2.5 2.5 0 1 0 -5 0zM1347.5 390 a2.5 2.5 0 1 0 5 0 a2.5 2.5 0 1 0 -5 0z" fill="black"></path><path d="M727.5 470 a2.5 2.5 0 1 0 5 0 a2.5 2.5 0 1 0 -5 0zM727.5 430 a2.5 2.5 0 1 0 5 0 a2.5 2.5 0 1 0 -5 0z" fill="black"></path><path d="M507.5 50 a2.5 2.5 0 1 0 5 0 a2.5 2.5 0 1 0 -5 0zM367.5 110 a2.5 2.5 0 1 0 5 0 a2.5 2.5 0 1 0 -5 0z" fill="black"></path><path d="M1247.5 290 a2.5 2.5 0 1 0 5 0 a2.5 2.5 0 1 0 -5 0zM1407.5 290 a2.5 2.5 0 1 0 5 0 a2.5 2.5 0 1 0 -5 0z" fill="black"></path><path d="M247.5 90 a2.5 2.5 0 1 0 5 0 a2.5 2.5 0 1 0 -5 0zM247.5 30 a2.5 2.5 0 1 0 5 0 a2.5 2.5 0 1 0 -5 0z" fill="black"></path><path d="M1207.5 50 a2.5 2.5 0 1 0 5 0 a2.5 2.5 0 1 0 -5 0zM1247.5 30 a2.5 2.5 0 1 0 5 0 a2.5 2.5 0 1 0 -5 0z" fill="black"></path><path d="M27.5 170 a2.5 2.5 0 1 0 5 0 a2.5 2.5 0 1 0 -5 0zM67.5 150 a2.5 2.5 0 1 0 5 0 a2.5 2.5 0 1 0 -5 0z" fill="black"></path><path d="M627.5 430 a2.5 2.5 0 1 0 5 0 a2.5 2.5 0 1 0 -5 0zM627.5 490 a2.5 2.5 0 1 0 5 0 a2.5 2.5 0 1 0 -5 0z" fill="black"></path><path d="M787.5 190 a2.5 2.5 0 1 0 5 0 a2.5 2.5 0 1 0 -5 0zM747.5 210 a2.5 2.5 0 1 0 5 0 a2.5 2.5 0 1 0 -5 0z" fill="black"></path><path d="M487.5 470 a2.5 2.5 0 1 0 5 0 a2.5 2.5 0 1 0 -5 0zM507.5 430 a2.5 2.5 0 1 0 5 0 a2.5 2.5 0 1 0 -5 0z" fill="black"></path><path d="M1187.5 550 a2.5 2.5 0 1 0 5 0 a2.5 2.5 0 1 0 -5 0zM1247.5 470 a2.5 2.5 0 1 0 5 0 a2.5 2.5 0 1 0 -5 0z" fill="black"></path><path d="M427.5 530 a2.5 2.5 0 1 0 5 0 a2.5 2.5 0 1 0 -5 0zM467.5 530 a2.5 2.5 0 1 0 5 0 a2.5 2.5 0 1 0 -5 0z" fill="black"></path><path d="M167.5 50 a2.5 2.5 0 1 0 5 0 a2.5 2.5 0 1 0 -5 0zM187.5 110 a2.5 2.5 0 1 0 5 0 a2.5 2.5 0 1 0 -5 0z" fill="black"></path><path d="M1307.5 510 a2.5 2.5 0 1 0 5 0 a2.5 2.5 0 1 0 -5 0zM1307.5 550 a2.5 2.5 0 1 0 5 0 a2.5 2.5 0 1 0 -5 0z" fill="black"></path><path d="M567.5 130 a2.5 2.5 0 1 0 5 0 a2.5 2.5 0 1 0 -5 0zM607.5 170 a2.5 2.5 0 1 0 5 0 a2.5 2.5 0 1 0 -5 0z" fill="black"></path><path d="M1427.5 130 a2.5 2.5 0 1 0 5 0 a2.5 2.5 0 1 0 -5 0zM1427.5 170 a2.5 2.5 0 1 0 5 0 a2.5 2.5 0 1 0 -5 0z" fill="black"></path><path d="M787.5 90 a2.5 2.5 0 1 0 5 0 a2.5 2.5 0 1 0 -5 0zM867.5 170 a2.5 2.5 0 1 0 5 0 a2.5 2.5 0 1 0 -5 0z" fill="black"></path><path d="M227.5 490 a2.5 2.5 0 1 0 5 0 a2.5 2.5 0 1 0 -5 0zM207.5 450 a2.5 2.5 0 1 0 5 0 a2.5 2.5 0 1 0 -5 0z" fill="black"></path><path d="M627.5 310 a2.5 2.5 0 1 0 5 0 a2.5 2.5 0 1 0 -5 0zM707.5 310 a2.5 2.5 0 1 0 5 0 a2.5 2.5 0 1 0 -5 0z" fill="black"></path><path d="M627.5 390 a2.5 2.5 0 1 0 5 0 a2.5 2.5 0 1 0 -5 0zM587.5 450 a2.5 2.5 0 1 0 5 0 a2.5 2.5 0 1 0 -5 0z" fill="black"></path><path d="M367.5 50 a2.5 2.5 0 1 0 5 0 a2.5 2.5 0 1 0 -5 0zM327.5 50 a2.5 2.5 0 1 0 5 0 a2.5 2.5 0 1 0 -5 0z" fill="black"></path><path d="M187.5 290 a2.5 2.5 0 1 0 5 0 a2.5 2.5 0 1 0 -5 0zM167.5 330 a2.5 2.5 0 1 0 5 0 a2.5 2.5 0 1 0 -5 0z" fill="black"></path><path d="M1407.5 350 a2.5 2.5 0 1 0 5 0 a2.5 2.5 0 1 0 -5 0zM1367.5 370 a2.5 2.5 0 1 0 5 0 a2.5 2.5 0 1 0 -5 0z" fill="black"></path><path d="M747.5 490 a2.5 2.5 0 1 0 5 0 a2.5 2.5 0 1 0 -5 0zM747.5 450 a2.5 2.5 0 1 0 5 0 a2.5 2.5 0 1 0 -5 0z" fill="black"></path><path d="M1247.5 510 a2.5 2.5 0 1 0 5 0 a2.5 2.5 0 1 0 -5 0zM1247.5 550 a2.5 2.5 0 1 0 5 0 a2.5 2.5 0 1 0 -5 0z" fill="black"></path><path d="M1147.5 490 a2.5 2.5 0 1 0 5 0 a2.5 2.5 0 1 0 -5 0zM1167.5 530 a2.5 2.5 0 1 0 5 0 a2.5 2.5 0 1 0 -5 0z" fill="black"></path><path d="M807.5 550 a2.5 2.5 0 1 0 5 0 a2.5 2.5 0 1 0 -5 0zM807.5 470 a2.5 2.5 0 1 0 5 0 a2.5 2.5 0 1 0 -5 0z" fill="black"></path><path d="M1407.5 150 a2.5 2.5 0 1 0 5 0 a2.5 2.5 0 1 0 -5 0zM1367.5 150 a2.5 2.5 0 1 0 5 0 a2.5 2.5 0 1 0 -5 0z" fill="black"></path><path d="M947.5 50 a2.5 2.5 0 1 0 5 0 a2.5 2.5 0 1 0 -5 0zM927.5 10 a2.5 2.5 0 1 0 5 0 a2.5 2.5 0 1 0 -5 0z" fill="black"></path><path d="M587.5 390 a2.5 2.5 0 1 0 5 0 a2.5 2.5 0 1 0 -5 0zM567.5 430 a2.5 2.5 0 1 0 5 0 a2.5 2.5 0 1 0 -5 0z" fill="black"></path><path d="M207.5 530 a2.5 2.5 0 1 0 5 0 a2.5 2.5 0 1 0 -5 0zM247.5 530 a2.5 2.5 0 1 0 5 0 a2.5 2.5 0 1 0 -5 0z" fill="black"></path><path d="M67.5 90 a2.5 2.5 0 1 0 5 0 a2.5 2.5 0 1 0 -5 0zM47.5 50 a2.5 2.5 0 1 0 5 0 a2.5 2.5 0 1 0 -5 0z" fill="black"></path><path d="M487.5 70 a2.5 2.5 0 1 0 5 0 a2.5 2.5 0 1 0 -5 0zM427.5 130 a2.5 2.5 0 1 0 5 0 a2.5 2.5 0 1 0 -5 0z" fill="black"></path><path d="M627.5 290 a2.5 2.5 0 1 0 5 0 a2.5 2.5 0 1 0 -5 0zM667.5 290 a2.5 2.5 0 1 0 5 0 a2.5 2.5 0 1 0 -5 0z" fill="black"></path><path d="M1407.5 270 a2.5 2.5 0 1 0 5 0 a2.5 2.5 0 1 0 -5 0zM1367.5 270 a2.5 2.5 0 1 0 5 0 a2.5 2.5 0 1 0 -5 0z" fill="black"></path><path d="M1007.5 10 a2.5 2.5 0 1 0 5 0 a2.5 2.5 0 1 0 -5 0zM1007.5 50 a2.5 2.5 0 1 0 5 0 a2.5 2.5 0 1 0 -5 0z" fill="black"></path><path d="M7.5 430 a2.5 2.5 0 1 0 5 0 a2.5 2.5 0 1 0 -5 0zM7.5 390 a2.5 2.5 0 1 0 5 0 a2.5 2.5 0 1 0 -5 0z" fill="black"></path><path d="M547.5 450 a2.5 2.5 0 1 0 5 0 a2.5 2.5 0 1 0 -5 0zM587.5 490 a2.5 2.5 0 1 0 5 0 a2.5 2.5 0 1 0 -5 0z" fill="black"></path><path d="M547.5 370 a2.5 2.5 0 1 0 5 0 a2.5 2.5 0 1 0 -5 0zM547.5 410 a2.5 2.5 0 1 0 5 0 a2.5 2.5 0 1 0 -5 0z" fill="black"></path><path d="M827.5 470 a2.5 2.5 0 1 0 5 0 a2.5 2.5 0 1 0 -5 0zM827.5 510 a2.5 2.5 0 1 0 5 0 a2.5 2.5 0 1 0 -5 0z" fill="black"></path><path d="M507.5 450 a2.5 2.5 0 1 0 5 0 a2.5 2.5 0 1 0 -5 0zM507.5 490 a2.5 2.5 0 1 0 5 0 a2.5 2.5 0 1 0 -5 0z" fill="black"></path></mask></defs></svg>